<svg id="Layer_1" data-name="Layer 1" xmlns="http://www.w3.org/2000/svg" viewBox="0 0 159 179.6"><defs><style>.cls-1{fill:none;}.cls-2{fill:#df3826;}.cls-3{fill:#c7c7c7;}</style></defs><title>icon-lightbulb-small</title><path class="cls-1" d="M37.78,64.54c.14-.33.3-.66.44-1l-.19.13S38,64,37.78,64.54Z" transform="translate(-10.5)"/><path class="cls-2" d="M36.81,67.06a21.6,21.6,0,0,0,1-2.52C37.43,65.36,37.11,66.21,36.81,67.06Z" transform="translate(-10.5)"/><rect class="cls-3" x="11.02" y="96.88" width="27.87" height="16.02" rx="7.08" ry="7.08" transform="translate(-63.98 30.91) rotate(-33.3)"/><rect class="cls-3" x="16.09" y="45.05" width="16.02" height="27.87" rx="7.08" ry="7.08" transform="translate(-49.89 53.54) rotate(-62.87)"/><rect class="cls-3" x="41.59" y="11.05" width="16.02" height="27.87" rx="7.08" ry="7.08" transform="translate(-15.44 35.49) rotate(-37.64)"/><rect class="cls-3" x="71.04" width="16.02" height="27.87" rx="7.08" ry="7.08"/><rect class="cls-3" x="147.04" y="90.96" width="16.02" height="27.87" rx="7.08" ry="7.08" transform="translate(-28.24 176.91) rotate(-56.7)"/><rect class="cls-3" x="141.96" y="50.98" width="27.87" height="16.02" rx="7.08" ry="7.08" transform="translate(-20.25 77.57) rotate(-27.13)"/><rect class="cls-3" x="116.46" y="16.97" width="27.87" height="16.02" rx="7.08" ry="7.08" transform="translate(20.49 112.99) rotate(-52.37)"/><rect class="cls-3" x="61.4" y="145.6" width="37.4" height="8.5"/><path class="cls-3" d="M71.9,162.6a5.09,5.09,0,0,0,3.85,4.94,14,14,0,0,1,5.45,3.34,15.38,15.38,0,0,1,2.46,3.51,7.26,7.26,0,0,0,.71,1.64l0,0a.67.67,0,0,0,.12.2,7.21,7.21,0,0,0,12.17,0,.53.53,0,0,0,.13-.2v0a7.26,7.26,0,0,0,.71-1.64,15.32,15.32,0,0,1,2.4-3.44c.47-.45,3-2.83,5.62-3.43h0a5.09,5.09,0,0,0,3.75-4.91v-3.4H71.9Z" transform="translate(-10.5)"/><path class="cls-3" d="M90.64,36.8h-.47A45.49,45.49,0,0,0,48.72,63.56c-.14.32-.3.65-.44,1a21.6,21.6,0,0,1-1,2.52A45.45,45.45,0,0,0,60.59,116.8a.06.06,0,0,0,0,0C62.06,118,71.9,126.15,71.9,138h37.4c0-9.26,5.38-16.28,8.32-19.42a45.47,45.47,0,0,0-27-81.73Zm1,18.33A49.41,49.41,0,0,0,69,78.78c-.16.35-.32.69-.47,1,0,0,0,0,0,.05a23.2,23.2,0,0,1-1,2.68l0,0c-.52,1.49-1,3-1.37,4.57-.14.67-.28,1.34-.41,2-.08.45-.16.91-.23,1.36a5.31,5.31,0,0,1-1,2.47c-1,1.24-1.94,1.11-2.79.34a4.69,4.69,0,0,1-1.31-2.24c-.15-.52-.28-1-.4-1.56-.18-.78-.33-1.58-.46-2.38a31.09,31.09,0,0,1,1.27-16.06.08.08,0,0,1,0,0,14.28,14.28,0,0,0,.65-1.71c.1-.23.21-.45.31-.67A31.2,31.2,0,0,1,90.17,50.32h.32A2.53,2.53,0,0,1,91.6,55.13Z" transform="translate(-10.5)"/></svg>