<svg id="Layer_1" data-name="Layer 1" xmlns="http://www.w3.org/2000/svg" viewBox="0 0 176.84 240"><defs><style>.cls-1{fill:#df3826;}</style></defs><title>icon-flame</title><path class="cls-1" d="M192.77,89.37c10.83,32.5-10.83,43.33-10.83,43.33C171.1,94.78,165.69,84,144,62.29S141.31,0,141.31,0C60.07,32.5,65.49,108.32,65.49,108.32c-10.84,0-16.25-21.66-16.25-21.66C16.67,145.28,37,188.24,58.34,213.17a84.11,84.11,0,0,0,29,21.75c-7.19-8.61-14.09-20.06-14.09-34.37,0-24,8-26.62,8-26.62-5.33,16,10.32,21.3,10.32,21.3,5.33-18.64,8-24,18.64-34.62S111.5,130,111.5,130c39.94,16,37.27,53.26,37.27,53.26,5.33,0,13.23-10.66,13.23-10.66,18.58,33.45-3.08,56.52-14.71,67.41C198.62,223.43,209,191.28,209,143.53,209,94.78,192.77,89.37,192.77,89.37Z" transform="translate(-32.17)"/></svg>