<svg id="Layer_1" data-name="Layer 1" xmlns="http://www.w3.org/2000/svg" viewBox="0 0 211.58 239"><defs><style>.cls-1{fill:#df3826;}.cls-2{fill:#606060;}.cls-3{fill:none;}.cls-4{fill:#fff;}</style></defs><title>icon-lightbulb</title><path class="cls-1" d="M116.79,49l-.62,0A60.52,60.52,0,0,0,61,84.58c-.19.43-.4.86-.58,1.3a28.71,28.71,0,0,1-1.3,3.36A60.53,60.53,0,1,0,116.79,49Z" transform="translate(-10.15 0)"/><path class="cls-2" d="M229.85,62.54" transform="translate(-10.15 0)"/><path class="cls-2" d="M98.64,203.93" transform="translate(-10.15 0)"/><rect class="cls-1" x="10.83" y="128.92" width="37.09" height="21.32" rx="9.42" ry="9.42" transform="translate(-81.95 39.04) rotate(-33.3)"/><rect class="cls-1" x="9.7" y="67.84" width="37.09" height="21.32" rx="9.42" ry="9.42" transform="translate(28.75 -4.24) rotate(27.13)"/><rect class="cls-1" x="43.64" y="22.59" width="37.09" height="21.32" rx="9.42" ry="9.42" transform="translate(40.4 -36.3) rotate(52.37)"/><rect class="cls-1" x="96.8" y="7.88" width="37.09" height="21.32" rx="9.42" ry="9.42" transform="translate(123.74 -96.8) rotate(90)"/><rect class="cls-1" x="183.96" y="128.92" width="37.09" height="21.32" rx="9.42" ry="9.42" transform="translate(285 367.41) rotate(-146.7)"/><rect class="cls-1" x="185.09" y="67.84" width="37.09" height="21.32" rx="9.42" ry="9.42" transform="translate(410.51 55.51) rotate(152.87)"/><rect class="cls-1" x="151.16" y="22.59" width="37.09" height="21.32" rx="9.42" ry="9.42" transform="translate(289.5 -80.84) rotate(127.63)"/><path class="cls-1" d="M141.62,153l-24.89,10.18L91.85,153l-15,2.22a.13.13,0,0,0-.07.23c1.94,1.53,15,12.39,15,28.09h49.77c0-17,13.57-28.28,13.57-28.28Z" transform="translate(-10.15 0)"/><rect class="cls-1" x="81.7" y="193.75" width="49.77" height="11.31"/><path class="cls-1" d="M91.85,211.85v4.53A6.78,6.78,0,0,0,97,223c3.29.81,6.44,3.67,7.25,4.45a19.85,19.85,0,0,1,3.27,4.66,9.74,9.74,0,0,0,1,2.19l0,0a.76.76,0,0,0,.16.26,9.6,9.6,0,0,0,16.2,0,.78.78,0,0,0,.17-.26l0,0a9.28,9.28,0,0,0,.94-2.19,20.15,20.15,0,0,1,3.2-4.57c.61-.6,4-3.78,7.47-4.57h0a6.8,6.8,0,0,0,5-6.54v-4.53Z" transform="translate(-10.15 0)"/><path class="cls-3" d="M60.43,85.88c.18-.44.39-.87.58-1.3l-.26.17S60.64,85.19,60.43,85.88Z" transform="translate(-10.15 0)"/><path class="cls-1" d="M59.13,89.24a28.71,28.71,0,0,0,1.3-3.36C60,87,59.53,88.11,59.13,89.24Z" transform="translate(-10.15 0)"/><path class="cls-4" d="M116.59,67h-.43A41.51,41.51,0,0,0,78.33,91.39c-.14.3-.28.59-.4.9a18.42,18.42,0,0,1-.88,2.27.14.14,0,0,0,0,.06A41.47,41.47,0,0,0,75.34,116c.18,1.07.37,2.12.61,3.16.16.7.34,1.4.53,2.08a6.11,6.11,0,0,0,1.75,3c1.13,1,2.41,1.2,3.71-.45a7.11,7.11,0,0,0,1.33-3.28c.1-.61.2-1.21.31-1.81.17-.9.35-1.79.55-2.68q.77-3.1,1.82-6.08l0-.07a29.43,29.43,0,0,0,1.38-3.57.25.25,0,0,1,0-.07c.2-.46.42-.91.62-1.37a65.8,65.8,0,0,1,30.06-31.47A3.38,3.38,0,0,0,116.59,67Z" transform="translate(-10.15 0)"/></svg>