<svg id="Layer_1" data-name="Layer 1" xmlns="http://www.w3.org/2000/svg" viewBox="0 0 180 180"><defs><style>.cls-1{fill:none;}.cls-2{fill:#df3826;}.cls-3{fill:#fff;}</style></defs><title>icon-linkedin</title><path class="cls-1" d="M37.78,64.54c.14-.33.3-.66.44-1l-.19.13S38,64,37.78,64.54Z" transform="translate(0.17 0)"/><path class="cls-2" d="M36.81,67.06a21.6,21.6,0,0,0,1-2.52C37.43,65.36,37.11,66.21,36.81,67.06Z" transform="translate(0.17 0)"/><g id="hZyTvM"><path class="cls-3" d="M89.77,0A90,90,0,1,1-.17,90,90,90,0,0,1,89.77,0Zm50.46,132.36c.05-.67.11-1.12.11-1.57,0-11.25.06-22.51-.05-33.76a43.92,43.92,0,0,0-.95-8.94c-2-9.08-7-15.63-16.44-17.7s-17.79,0-23.7,8.4a7.34,7.34,0,0,1-.7.58V71.29H78.3v61H98.53v-2.24q0-16.29,0-32.58a11.48,11.48,0,0,1,4.73-9.66A9.88,9.88,0,0,1,119.07,93a28.86,28.86,0,0,1,.89,7.36c.09,9.88,0,19.75,0,29.63v2.34ZM46.62,71.24v61.08H66.71V71.24Zm10-8.53c5.64,0,10-3,11.19-7.7a10.44,10.44,0,0,0-7-12.86c-6.37-1.94-12.92.85-14.88,6.33C43.31,55.8,48.53,62.73,56.66,62.71Z" transform="translate(0.17 0)"/></g></svg>