<?xml version="1.0" encoding="utf-8"?>
<!-- Generator: Adobe Illustrator 22.1.0, SVG Export Plug-In . SVG Version: 6.00 Build 0)  -->
<svg version="1.1" id="Layer_1" xmlns="http://www.w3.org/2000/svg" xmlns:xlink="http://www.w3.org/1999/xlink" x="0px" y="0px"
	 viewBox="0 0 1920.1 878.9" style="enable-background:new 0 0 1920.1 878.9;" xml:space="preserve">
<style type="text/css">
	.st0{fill:#F8F8F0;}
</style>
<g id="egb0BE_1_">
	
		<image style="overflow:visible;opacity:0.3;enable-background:new    ;" width="2136" height="706" xlink:href="F71C6B5852E4843C.png"  transform="matrix(1 0 0 1 -108 236.1667)">
	</image>
	<g>
		<g>
			<g>
				<path class="st0" d="M0,0.2c237.3,0,1353.3,0,1920,0c0,483.3,0,362.5,0,845.8c-0.5-0.2-1-0.2-1.4-0.5
					c-23.6-16.8-49.4-29.3-76-40.5c-91.1-38.4-186.5-60.9-283.4-77.9c-38.4-6.7-77.1-12.1-115.8-17.2c-32.1-4.3-64.4-7.7-96.6-10.8
					c-29.6-2.8-59.4-5.1-89.1-7c-31.9-2.1-63.8-3.8-95.8-5c-34.3-1.4-68.6-2.2-102.9-2.9c-70.1-1.5-140.3-2.5-210.4-4.4
					c-31.6-0.8-63.2-2.8-94.8-5.1c-32.3-2.4-64.6-5.4-96.9-8.8c-31.7-3.3-63.5-6.6-95-11.3c-41.7-6.2-83.3-13.2-124.7-20.7
					c-67.8-12.3-134.6-28.8-200.4-49.1c-66.7-20.6-132-44.9-193.8-77.9C28.3,499,14.3,489.7,0,481"/>
			</g>
		</g>
	</g>
</g>
</svg>
