<svg id="ny_version" data-name="ny version" xmlns="http://www.w3.org/2000/svg" viewBox="0 0 86.2 76.52"><defs><style>.cls-1{fill:#fff;}</style></defs><title>footer-sb-logo</title><path class="cls-1" d="M85.36,11.52v0l-.15-.32c-1.85-3.74-6.34-7.53-16.32-9.47l-.32-.06-.45-.08-.43-.07c-1.26-.22-2.59-.41-4-.57A93.08,93.08,0,0,0,53.51.4C40.79.24,22.33,2.17,8.89,12.68l-.06,0a14.31,14.31,0,0,0-2.09,1.76A14,14,0,0,0,5.38,16C4.88,16.6,4,17.91,4,18c-3.7,5.69-9,17.62,7.71,22.48a177.46,177.46,0,0,0,24.8,5.78c9.42,2,14.26,4.05,16.55,5.92l-.12,0a6.84,6.84,0,0,1,.85.72,2.93,2.93,0,0,1,.56,3.88A9.3,9.3,0,0,1,52,58.81C40.14,64.64,31.79,65,27,64.43a26.87,26.87,0,0,1-4.61-1.17l0,0h0C19,62,15.65,60,16,56.93c.27-2.38,3-4.6,4.68-6l4.63-3.8c.63-.49-.85-.78-.91-.8-4.28-.87-6-1.33-8.48-2a1.17,1.17,0,0,0-1.07.25c-28.38,23.64-2.47,31.69,5.74,32.13l.47,0c2.7.21,4.81.16,4.81.16a65.67,65.67,0,0,0,25-4.4l.49-.2.77-.31.86-.38.49-.22.84-.4.72-.36.38-.19c.67-.34,1.35-.7,2-1.09,17.87-10.26,7.15-17.77,7.15-17.77-7.67-6.73-28.06-11.14-28.06-11.14S16.37,36,14.78,32.82c0,0-4.1-7.29,9.68-13.69l.28-.12h0l.68-.27a36.08,36.08,0,0,1,4.75-1.49c6-1.34,20.41-4.14,33-3.54h.05c8.28.84,11.43,3.39,12.3,5.56a4.23,4.23,0,0,1,.25,1,.17.17,0,0,1,0,.07.76.76,0,0,1,0,.15,2.67,2.67,0,0,1,0,.4.92.92,0,0,1,0,.16c0,.14-.1.39-.17.7-1.22,3.37-9,9.32-32.78,10,9.79-9.18,11.37-11.07,12.34-12.75.08-.15.48-.8-1.17-.47C43.75,21,34.07,27.17,24.2,34.14c-.19.13-.32.46.25.65,4.08,1.14,8.41,2.37,9.76,2.61a23,23,0,0,0,4.28.12c9.86-.83,28.39-1.26,39.94-8.65a14.08,14.08,0,0,0,2.26-1.6c.41-.36.78-.71,1.13-1l.32-.32c2.7-2.72,3.09-4.44,3.09-4.44a12.78,12.78,0,0,0,1-4h0A11.15,11.15,0,0,0,85.36,11.52Z" transform="translate(-0.15 -0.39)"/></svg>