<svg id="Layer_1" data-name="Layer 1" xmlns="http://www.w3.org/2000/svg" viewBox="0 0 142.08 161.42"><defs><style>.cls-1{fill:#ff6c4a;}</style></defs><title>icon-value3</title><path class="cls-1" d="M156,43.24" transform="translate(-8.37 -1)"/><path class="cls-1" d="M67.37,138.74" transform="translate(-8.37 -1)"/><rect class="cls-1" x="7.61" y="88.21" width="25.05" height="12.73" rx="6.37" ry="6.37" transform="translate(-56.98 25.58) rotate(-33.3)"/><rect class="cls-1" x="7.69" y="46.91" width="25.05" height="12.73" rx="6.37" ry="6.37" transform="translate(18.14 -4.36) rotate(27.13)"/><rect class="cls-1" x="30.95" y="16.61" width="25.05" height="12.59" rx="6.29" ry="6.29" transform="translate(26.69 -26.51) rotate(52.37)"/><rect class="cls-1" x="66.92" y="7.11" width="25.05" height="12.84" rx="6.42" ry="6.42" transform="translate(84.6 -66.92) rotate(90)"/><rect class="cls-1" x="124.54" y="89.61" width="25.05" height="12.73" rx="6.37" ry="6.37" transform="translate(190.59 250.44) rotate(-146.7)"/><rect class="cls-1" x="126.06" y="48.01" width="25.05" height="13.13" rx="6.57" ry="6.57" transform="translate(278.43 38.97) rotate(152.87)"/><rect class="cls-1" x="103.59" y="17.76" width="25.05" height="12.54" rx="6.27" ry="6.27" transform="translate(197.67 -54.25) rotate(127.63)"/><path class="cls-1" d="M96.41,104.36,79.6,111.23l-16.81-6.87-10.11,1.5a.08.08,0,0,0,0,.15c1.31,1,10.15,8.37,10.15,19H96.41c0-11.46,9.16-19.1,9.16-19.1Z" transform="translate(-8.37 -1)"/><rect class="cls-1" x="54.42" y="130.86" width="33.62" height="7.64"/><path class="cls-1" d="M62.79,144.09v3a4.59,4.59,0,0,0,3.47,4.45,12.42,12.42,0,0,1,4.89,3,13.11,13.11,0,0,1,2.21,3.15,6.52,6.52,0,0,0,.65,1.48v0a.42.42,0,0,0,.11.18,6.49,6.49,0,0,0,10.94,0,.54.54,0,0,0,.11-.18v0a6.49,6.49,0,0,0,.64-1.48A13.44,13.44,0,0,1,88,154.65,12.45,12.45,0,0,1,93,151.56h0a4.59,4.59,0,0,0,3.37-4.42v-3Z" transform="translate(-8.37 -1)"/><path class="cls-1" d="M41.57,59c.12-.29.26-.58.39-.87l-.17.11S41.71,58.54,41.57,59Z" transform="translate(-8.37 -1)"/><path class="cls-1" d="M40.69,61.27A17.83,17.83,0,0,0,41.57,59C41.25,59.75,41,60.51,40.69,61.27Z" transform="translate(-8.37 -1)"/><path class="cls-1" d="M79.64,34.08h-.42A40.88,40.88,0,0,0,42,58.13c-.13.29-.27.58-.39.87a17.83,17.83,0,0,1-.88,2.27,40.88,40.88,0,1,0,39-27.19Zm.86,16.47A44.46,44.46,0,0,0,60.19,71.81c-.14.31-.28.61-.42.93,0,0,0,0,0,0a21.42,21.42,0,0,1-.93,2.42.08.08,0,0,0,0,0c-.48,1.34-.89,2.71-1.24,4.11-.13.6-.25,1.2-.36,1.81-.08.4-.15.81-.21,1.22a4.82,4.82,0,0,1-.9,2.21,1.52,1.52,0,0,1-2.51.31,4.21,4.21,0,0,1-1.18-2q-.19-.69-.36-1.41c-.16-.7-.29-1.41-.41-2.13a28.4,28.4,0,0,1-.47-5.08,27.89,27.89,0,0,1,1.61-9.36.08.08,0,0,1,0,0,13.09,13.09,0,0,0,.59-1.54c.08-.2.18-.4.27-.6a28,28,0,0,1,25.55-16.5h.29A2.28,2.28,0,0,1,80.5,50.55Z" transform="translate(-8.37 -1)"/></svg>