<svg id="Layer_1" data-name="Layer 1" xmlns="http://www.w3.org/2000/svg" viewBox="0 0 144.47 161.84"><defs><style>.cls-1{fill:#89cbff;}</style></defs><title>icon-video</title><g id="GqZmaR"><path class="cls-1" d="M43.73,1.18V13.8c0,3.54,1.22,4.74,4.8,4.74h65.78c3.57,0,4.77-1.21,4.77-4.75V1.19c3.84,0,7.5-.07,11.16,0,3.36.07,6.81-.13,10.06.56,8.08,1.69,13.32,8.72,13.33,17.26q0,25.11,0,50.24,0,37.68,0,75.36c0,11-7.35,18.35-18.35,18.36h-16.2v-2c0-3.79,0-7.59,0-11.38,0-2.6-1.41-4-4-4q-33.61,0-67.23,0c-2.66,0-4,1.45-4.06,4.19,0,4.21,0,8.43-.05,12.64a1.94,1.94,0,0,1-.21.52c-3,0-6,0-9.08,0a85.81,85.81,0,0,1-10.28-.27c-8.87-1.2-14.91-8.34-14.93-17.37q0-31.17,0-62.35,0-31.81,0-63.62c0-10.63,7.39-18.14,18-18.18C32.59,1.16,38,1.18,43.73,1.18Zm75.35,81.09V40.16c0-3.09-1.3-4.42-4.36-4.42h-66c-4,0-5,1-5,5v82.78c0,3.71,1.16,4.89,4.83,4.89h66c3.31,0,4.56-1.27,4.56-4.6Zm11.53-63.8V30H142.1V18.47ZM142.1,58.94V47.45H130.61V58.94Zm0,28.92V76.37H130.61V87.86Zm0,17.41H130.65v11.48h11.48Zm0,40.44v-11.5H130.61v11.5ZM32.19,30V18.49H20.76V30ZM20.73,47.41v11.5H32.22V47.41Zm0,28.89V87.84H32.16V76.3Zm0,28.94v11.5H32.21v-11.5ZM32.2,145.72V134.17H20.75v11.55Z" transform="translate(-9.17 -1.16)"/><path class="cls-1" d="M64.27,82.4V65.89c0-2.66,1.67-3.74,4-2.54q16.74,8.4,33.46,16.85a2.46,2.46,0,0,1,1.67,2.27c0,1.14-.78,1.75-1.74,2.23q-16.6,8.37-33.21,16.74c-2.6,1.31-4.23.27-4.23-2.67Z" transform="translate(-9.17 -1.16)"/></g></svg>