<svg id="Layer_1" data-name="Layer 1" xmlns="http://www.w3.org/2000/svg" viewBox="0 0 145.83 57.42"><defs><style>.cls-1{fill:#d0d0b8;}</style></defs><title>logo-work-circle-k</title><g id="URizEU"><path class="cls-1" d="M155,101.07H9.17V53.26H155ZM139.75,89c.1-.13.17-.21.23-.3.2-.28.4-.56.58-.85a16.36,16.36,0,0,0,2.09-12.71,15.14,15.14,0,0,0-8.29-10.61,16.31,16.31,0,0,0-11.28-1.29A15.2,15.2,0,0,0,113,70.6a16.37,16.37,0,0,0-1.79,12.18,15.18,15.18,0,0,0,5.69,9,15.91,15.91,0,0,0,8.75,3.3,16.76,16.76,0,0,0,7.92-1.27c.72-.31,1.41-.7,2.15-1.07l-10.09-13-.08,0v8.07h-5.62V70.09h5.63v8.18l.28-.37,5.39-7.56a.57.57,0,0,1,.54-.28h5.76l.35,0c-.11.15-.17.25-.25.34-1.93,2.62-3.85,5.24-5.8,7.85a.46.46,0,0,0,0,.68c1.84,2.29,3.65,4.59,5.48,6.89ZM46.52,70.06v17.8H51.1V80.49c.12.17.19.26.25.36,1.41,2.21,2.84,4.42,4.23,6.64a.77.77,0,0,0,.76.41c1.5,0,3,0,4.48,0h.47L56.76,81.1a5.54,5.54,0,0,0,2.12-1.62A5.81,5.81,0,0,0,60,74.87a4.84,4.84,0,0,0-2.57-3.75,8.1,8.1,0,0,0-3.68-1c-2.34-.08-4.67-.06-7-.09Zm56.73,7h-6.8V74.11h7.09v-4H91.84V87.86h11.71v-4H96.46v-3h6.3c.49,0,.49,0,.49-.5V77Zm-24.92-2.9a9.21,9.21,0,0,0-9.94-4.22,9.23,9.23,0,0,0-.68,18A9.33,9.33,0,0,0,78.3,83.79l-3.54-2.31-.31.43A4.88,4.88,0,0,1,65.69,78a4.5,4.5,0,0,1,3.38-3.84,4.64,4.64,0,0,1,5,1.48c.23.26.44.55.66.84Zm-39.83,0A9.37,9.37,0,0,0,28,70a9.23,9.23,0,0,0,.78,18,9.21,9.21,0,0,0,9.7-4.28l-3.51-2.29a5,5,0,0,1-7.59,1.26,5.34,5.34,0,0,1-.17-7.41,5,5,0,0,1,7.73,1.15ZM90.34,83.8H84.17V70.08H79.51V87.86H90.34Zm-46,4.08V70.07H39.8V87.88Z" transform="translate(-9.17 -53.26)"/><path class="cls-1" d="M82.08,103.55h72.23c.11,0,.22,0,.33,0,.26,0,.37.06.36.34,0,.51,0,1,0,1.51,0,1.63,0,3.25,0,4.88,0,.3-.09.43-.39.4a1.13,1.13,0,0,0-.26,0H9.83c-.75,0-.65.06-.65-.64v-6c0-.5,0-.5.5-.5Z" transform="translate(-9.17 -53.26)"/><path class="cls-1" d="M51.1,79.26V73.87a6.78,6.78,0,0,1,3.1.34,2.44,2.44,0,0,1,1.25,2.66,2.36,2.36,0,0,1-2.07,2.2A20.61,20.61,0,0,1,51.1,79.26Z" transform="translate(-9.17 -53.26)"/></g></svg>