<svg id="Layer_1" data-name="Layer 1" xmlns="http://www.w3.org/2000/svg" viewBox="0 0 148.06 25.89"><defs><style>.cls-1{fill:#d0d0b8;}</style></defs><title>logo-work-dagslys</title><path class="cls-1" d="M8.4,66.59h.45c3.49,0,7,0,10.46,0A10.5,10.5,0,0,1,26,68.74a9,9,0,0,1,3,4.8,19.78,19.78,0,0,1-.12,11.28c-1.21,3.85-4,5.9-7.9,6.48a18.77,18.77,0,0,1-2.81.18c-3.09,0-6.18,0-9.27,0H8.4Zm7.24,22.82c.66,0,1.29,0,1.92,0a3.69,3.69,0,0,0,3.81-3.05A16.21,16.21,0,0,0,22,81.87c0-2.28,0-4.57-.08-6.85a11.53,11.53,0,0,0-.84-4.13,3.38,3.38,0,0,0-2.08-2,10.5,10.5,0,0,0-3.36-.25Z" transform="translate(-8.4 -66.11)"/><path class="cls-1" d="M67.67,80.5H64.13V78H74.36V91.49c-.73,0-1.47,0-2.2,0-.09,0-.19-.16-.24-.26-.21-.45-.41-.91-.61-1.35-.77.41-1.49.84-2.25,1.2a10.64,10.64,0,0,1-5.32.84,11.47,11.47,0,0,1-5.51-1.69,10.21,10.21,0,0,1-4.47-6.6A16.73,16.73,0,0,1,54.48,73a10.65,10.65,0,0,1,8.4-6.67,11.5,11.5,0,0,1,4.85.17,7.27,7.27,0,0,1,5.19,5c.2.57.35,1.15.52,1.74l-3.52,1.6a16.81,16.81,0,0,0,0-1.75,10.9,10.9,0,0,0-.38-2.14,3.62,3.62,0,0,0-4.14-2.5,3.75,3.75,0,0,0-3.45,2.91,16.26,16.26,0,0,0-.67,4.48c-.06,2.46-.08,4.92,0,7.37a19.33,19.33,0,0,0,.6,4,3.1,3.1,0,0,0,3.86,2.39,2.23,2.23,0,0,0,1.9-2.36C67.73,85,67.67,82.79,67.67,80.5Z" transform="translate(-8.4 -66.11)"/><path class="cls-1" d="M92.15,74.21a16,16,0,0,0,.12-2.16A3.67,3.67,0,0,0,89,68.37a8.16,8.16,0,0,0-4,0A2.62,2.62,0,0,0,83,71.5a2.76,2.76,0,0,0,1.1,1.68,11,11,0,0,0,3.46,1.76A20.36,20.36,0,0,1,93,77.68a8,8,0,0,1,3.24,4.4,7.38,7.38,0,0,1-5.19,9.31,13.88,13.88,0,0,1-8.8-.22c-2.8-1-4.19-3.09-4.22-6.2a11.65,11.65,0,0,1,0-1.32.48.48,0,0,1,.22-.36c1.09-.26,2.19-.49,3.27-.72a23.83,23.83,0,0,0-.32,2.73,4,4,0,0,0,4,4.53,11.42,11.42,0,0,0,2.86-.08,2.79,2.79,0,0,0,2.54-2.16,3,3,0,0,0-1.1-3.24,12.34,12.34,0,0,0-3.79-2,14.47,14.47,0,0,1-5-2.94,7.8,7.8,0,0,1-1.19-9.8,7.34,7.34,0,0,1,3.72-2.77,12.46,12.46,0,0,1,7.8-.1,6,6,0,0,1,4.35,5.57c0,.42.19,1,0,1.24s-.77.23-1.18.32-.7.15-1,.21Z" transform="translate(-8.4 -66.11)"/><path class="cls-1" d="M152.07,74.21a16,16,0,0,0,.11-2.16,3.66,3.66,0,0,0-3.25-3.68,8.16,8.16,0,0,0-4,0,2.6,2.6,0,0,0-2.06,3.08,2.73,2.73,0,0,0,1.1,1.68,10.77,10.77,0,0,0,3.42,1.75,20.2,20.2,0,0,1,5.54,2.75,8,8,0,0,1,3.32,4.73,7.39,7.39,0,0,1-5.24,9,14.1,14.1,0,0,1-8.85-.21c-2.79-1-4.17-3.1-4.21-6.2,0-.23,0-.46,0-.69.06-.94.06-1,1-1.15l2.55-.56c-.11.92-.3,1.81-.32,2.69,0,2.7,1.29,4.23,4,4.58a9,9,0,0,0,3.23-.14,3,3,0,0,0,1.35-5.13,10.86,10.86,0,0,0-3.65-2.11,17.06,17.06,0,0,1-4.82-2.56,7.91,7.91,0,0,1-2.42-9.22,7.13,7.13,0,0,1,4.63-4,12.34,12.34,0,0,1,7.51,0,6,6,0,0,1,4.35,5.57c.05.43.2,1,0,1.25s-.78.23-1.19.31-.7.15-1,.21Z" transform="translate(-8.4 -66.11)"/><path class="cls-1" d="M51.79,91.49H49.68c-1.59,0-3.18,0-4.76,0-.37,0-.49-.11-.57-.45-.4-1.53-.83-3-1.23-4.58-.08-.32-.22-.39-.53-.39-2.22,0-4.43,0-6.65,0a.42.42,0,0,0-.5.37c-.44,1.55-.9,3.1-1.34,4.65-.08.29-.2.41-.52.4-.81,0-1.62,0-2.48,0l1.15-3.9q3-10.28,6.08-20.56c.09-.32.21-.45.57-.45,2,0,4,0,6,0Q48.33,79,51.79,91.49ZM39.42,72.66l-3.14,10.9h6C41.36,79.94,40.4,76.37,39.42,72.66Z" transform="translate(-8.4 -66.11)"/><path class="cls-1" d="M116.49,66.6c2.48,0,4.88,0,7.29,0a.57.57,0,0,1,.37.3q1.86,4.4,3.71,8.79l1.19,2.79c.08-.17.14-.28.18-.39,1.4-3.71,2.81-7.41,4.21-11.13a.48.48,0,0,1,.55-.38c.82,0,1.65,0,2.54,0L135.62,69l-5,13.06a2.07,2.07,0,0,0-.14.74c0,2.75,0,5.5,0,8.24v.48H123.2V91q0-4,0-8.11a2.54,2.54,0,0,0-.19-.94q-3.15-7.44-6.33-14.85Z" transform="translate(-8.4 -66.11)"/><path class="cls-1" d="M118.31,89v2.48H100.85V66.62H108V89Z" transform="translate(-8.4 -66.11)"/></svg>