<svg id="Layer_1" data-name="Layer 1" xmlns="http://www.w3.org/2000/svg" viewBox="0 0 160.7 94.76"><defs><style>.cls-1{fill:#d0d0b8;}</style></defs><title>logo-work-sde</title><g id="l9zxl6"><path class="cls-1" d="M109.7,78c.21,1,.32,1.5.38,1.81l-1.18.5a51.52,51.52,0,0,1-3.8-14.41c-.47-4.47-.49-9-1-13.44a19,19,0,0,0-2-6.06c-.69-1.34-.28-1.88.75-2.42a5,5,0,0,1,5.83,1.1,11.49,11.49,0,0,1,3.22,6.62c.56,2.92,1,5.88,1.24,8.84.4,4.11.62,8.24.92,12.35-1.94,0-2,.05-1.33,2.28.83,2.68,1.82,5.32,2.73,8,.25.74.47,1.5.7,2.25l-.62.5-1-2.16-.5.49a57.4,57.4,0,0,0,22,27.06l-.38.43c-2.25-1.65-4.61-3.16-6.72-5a68.76,68.76,0,0,1-12.16-13.93,20.71,20.71,0,0,1-.79-2.22C114,86.54,111.94,82.49,109.7,78Zm-2.36-10.75-.52.13,2.3,9.75.6-.14Z" transform="translate(-1.3 -33.41)"/><path class="cls-1" d="M137.37,84.07c1.68-3,3.26-5.82,4.84-8.65q3.3-5.88,6.6-11.76c1.1-2,2.51-2.47,4.1-1.53s1.7,2.29.61,4.23L141.13,88.49c-1.25,2.24-2.39,2.57-4.64,1.32-2.47-1.36-4.93-2.72-7.39-4.11-1.69-1-2.16-2.29-1.39-3.76s2.25-1.92,4-1S135.41,83,137.37,84.07Z" transform="translate(-1.3 -33.41)"/><path class="cls-1" d="M121.83,62.15c-2.6-.09-3.89-2-3.1-3.83.46-1,1.07-2,1.63-3,3.7-6.62,7.38-13.26,11.14-19.85.48-.84,1.29-1.85,2.1-2a3.82,3.82,0,0,1,2.84,1c.95.82.69,2.08.1,3.15q-3,5.32-6,10.65c-2.27,4.06-4.51,8.15-6.87,12.17A8.09,8.09,0,0,1,121.83,62.15Z" transform="translate(-1.3 -33.41)"/><path class="cls-1" d="M153.91,45.8a7.34,7.34,0,0,1-.5,1.32q-6.33,11.35-12.71,22.7c-.9,1.59-2,2.07-3.47,1.56-1.81-.64-2.34-2.3-1.26-4.24q4.74-8.53,9.53-17c1.14-2,2.27-4.07,3.45-6.08a2.38,2.38,0,0,1,2.92-1.18A2.64,2.64,0,0,1,153.91,45.8Z" transform="translate(-1.3 -33.41)"/><path class="cls-1" d="M130.36,67c-2.88,0-4.09-2.19-2.92-4.31,2.84-5.17,5.75-10.31,8.64-15.46,1.37-2.46,2.74-4.92,4.14-7.36,1-1.69,2.44-2.16,3.93-1.3s1.72,2.28.79,4c-4.22,7.57-8.43,15.14-12.72,22.67A7.69,7.69,0,0,1,130.36,67Z" transform="translate(-1.3 -33.41)"/><path class="cls-1" d="M135.52,115c4,0,6.93,2.72,6.91,6.39a6.85,6.85,0,0,1-13.7.11C128.69,117.75,131.58,115,135.52,115Zm3.77,6.53a3.72,3.72,0,0,0-7.44-.14,3.72,3.72,0,1,0,7.44.14Z" transform="translate(-1.3 -33.41)"/><path class="cls-1" d="M26.37,121.4c0-1.57.05-3.15,0-4.72,0-1.15.54-1.35,1.51-1.33s1.67.05,1.55,1.27c0,.1,0,.21,0,.32.07,3.45.67,4,4.11,3.27a1.57,1.57,0,0,0,.92-1,6.71,6.71,0,0,0,.05-2.1c-.09-1.17.18-1.79,1.58-1.77s1.5.63,1.48,1.71c0,3,0,6.07,0,9.11,0,1.23-.45,1.59-1.62,1.59s-1.56-.51-1.44-1.58c0-.11,0-.22,0-.33,0-3.41-.67-4-4.09-3.24a1.55,1.55,0,0,0-.94,1,8.23,8.23,0,0,0,0,2.43c.15,1.44-.57,1.76-1.83,1.69-.9,0-1.26-.38-1.24-1.28C26.4,124.76,26.37,123.08,26.37,121.4Z" transform="translate(-1.3 -33.41)"/><path class="cls-1" d="M126.08,115.61c-1.24,1.48-2.28,2.87-3.47,4.11-1,1.06-1.11,1.87,0,3,1.36,1.43,2.53,3,3.85,4.65-2.75.75-3.5.52-5-1.38l-2.6-3.37-.55.19c0,1.22,0,2.44,0,3.65s-.71,1.25-1.59,1.26-1.47-.15-1.46-1.23q0-5,0-9.92c0-1.26.78-1.18,1.63-1.2s1.48.17,1.42,1.24,0,2.24,0,3.35l.56.25a23.1,23.1,0,0,0,2.14-2.83C122.1,115.34,123.73,115,126.08,115.61Z" transform="translate(-1.3 -33.41)"/><path class="cls-1" d="M68.65,123.47c0,1,0,1.9,0,2.85s-.5,1.39-1.5,1.39-1.48-.27-1.46-1.37c0-3.25,0-6.5,0-9.74,0-.9.34-1.28,1.24-1.24,1.08,0,2.17,0,3.25,0,2.52,0,4,.83,4.44,2.48.56,2-.07,3.39-2.47,5l3.35,4.47c-2.33.88-3.3.56-4.52-1.35-.57-.89-1.18-1.76-1.77-2.64Zm.16-5a1.32,1.32,0,0,0-.07,1.69c.35.46.63.82,1,.86a1.58,1.58,0,0,0,1.89-1.68,1.52,1.52,0,0,0-1.79-1.6C69.47,117.72,69.18,118,68.81,118.42Z" transform="translate(-1.3 -33.41)"/><path class="cls-1" d="M16.76,123.53c0,1,0,1.94,0,2.9s-.49,1.3-1.4,1.28-1.53-.09-1.53-1.18c0-3.63,0-7.26,0-11,2.17,0,4.27-.15,6.33,0a2.83,2.83,0,0,1,2.47,2.67,3.57,3.57,0,0,1-1.3,3.77c-.3.22-.63.41-1.2.77l3.36,4.56c-2.66.71-3.27.5-4.53-1.41l-1.75-2.63Zm.64-2.32.75.09c.5-.65,1.32-1.25,1.43-2,.18-1.21-.84-1.73-1.9-1.7-1.46,0-.85,1.27-.87,2A4.46,4.46,0,0,0,17.4,121.21Z" transform="translate(-1.3 -33.41)"/><path class="cls-1" d="M40.18,115.61c2.7-.62,3-.48,3.85,1.83.67,1.74,1.37,3.48,2.06,5.22l.51,0c.72-1.77,1.45-3.54,2.16-5.32.9-2.25,1.11-2.35,3.79-1.73a11.69,11.69,0,0,1-.39,1.35c-1.34,3.14-2.71,6.26-4,9.41a1.85,1.85,0,0,1-3.55,0c-1.36-3.25-2.74-6.48-4.1-9.73A8.68,8.68,0,0,1,40.18,115.61Z" transform="translate(-1.3 -33.41)"/><path class="cls-1" d="M100.25,115.6,99,118a10,10,0,0,0-2.43-.37,1.84,1.84,0,0,0-1.25,1c-.1.25.42,1,.81,1.18a12.52,12.52,0,0,0,2.12.8,3.13,3.13,0,0,1,2.34,3,3.89,3.89,0,0,1-2.07,3.92,6.74,6.74,0,0,1-6.83-.88l1-1.84a17.64,17.64,0,0,0,3.3.7,1.82,1.82,0,0,0,1.3-1.11c.11-.33-.44-1-.86-1.33a7.49,7.49,0,0,0-1.81-.66c-2-.69-2.71-1.66-2.58-3.59a3.69,3.69,0,0,1,3.32-3.62A33.1,33.1,0,0,1,100.25,115.6Z" transform="translate(-1.3 -33.41)"/><path class="cls-1" d="M111.81,115.57c-.57,1.17-.85,1.75-1.15,2.35a10.2,10.2,0,0,0-2.42-.32,1.81,1.81,0,0,0-1.24,1c-.1.27.41,1,.81,1.19a14.94,14.94,0,0,0,2.12.8,3,3,0,0,1,2.25,2.69c.09,1.6-.16,3.09-1.67,4a6.59,6.59,0,0,1-6.4,0c-1-.45-.87-.81.32-2.58a10.74,10.74,0,0,0,2.71.79c.61,0,1.23-.59,1.85-.92a7.87,7.87,0,0,0-1.21-1.66,4.34,4.34,0,0,0-1.52-.53c-2.05-.71-2.65-1.56-2.53-3.59a3.51,3.51,0,0,1,3.13-3.59A29.79,29.79,0,0,1,111.81,115.57Z" transform="translate(-1.3 -33.41)"/><path class="cls-1" d="M89.65,115.54c-1.69,3.91-3.28,7.7-5,11.44-.45,1-2.44,1.1-2.86.15-1.69-3.8-3.26-7.64-4.89-11.5,2.82-.64,3-.52,4,1.79.76,1.92,1.54,3.83,2.32,5.75h.05c.75-1.83,1.51-3.65,2.25-5.48C86.56,115.16,86.56,115.16,89.65,115.54Z" transform="translate(-1.3 -33.41)"/><path class="cls-1" d="M155,121.35c0-1.51,0-3,0-4.54,0-1,.3-1.51,1.4-1.46,1.46.06,2.92.05,4.38,0,.91,0,1.24.33,1.24,1.24s-.29,1.32-1.22,1.26a3.42,3.42,0,0,0-1.6,0c-.46.21-1.06.78-1.05,1.18s.63.94,1.1,1.14,1.14-.1,1.58.11,1,.79,1,1.21-.59.94-1.05,1.14-1.13-.1-1.58.11-1,.77-1.05,1.19.58,1,1,1.18a3.72,3.72,0,0,0,1.6,0c.92,0,1.23.37,1.23,1.26s-.41,1.25-1.28,1.23c-1.46,0-2.92,0-4.38,0-1.1,0-1.39-.5-1.36-1.49C155,124.6,155,123,155,121.35Z" transform="translate(-1.3 -33.41)"/><path class="cls-1" d="M55.27,121.52c0-1.57,0-3.14,0-4.71,0-1,.26-1.51,1.36-1.46,1.41.07,2.82,0,4.23,0,.88,0,1.28.3,1.28,1.22s-.31,1.33-1.24,1.27a3.72,3.72,0,0,0-1.6.06c-.43.18-1,.75-1,1.08a2,2,0,0,0,1,1.24,2.84,2.84,0,0,0,1.43,0c.93-.06,1.22.39,1.23,1.27s-.44,1.14-1.29,1.22-2.35-.69-2.48,1.16c0,.82.15,1.38,1.15,1.3a4.2,4.2,0,0,1,1.77,0,1.6,1.6,0,0,1,.9,1.15c0,.42-.53,1.17-.86,1.19a33.78,33.78,0,0,1-5,0c-.32,0-.82-.78-.85-1.22C55.21,124.77,55.27,123.15,55.27,121.52Z" transform="translate(-1.3 -33.41)"/><path class="cls-1" d="M145.48,121.35c0-1.57.05-3.15,0-4.72,0-1,.41-1.31,1.36-1.28s1.74,0,1.71,1.31c0,2.28.06,4.56,0,6.83,0,1.37.47,1.89,1.8,1.73.37,0,.75,0,1.13,0,.9,0,1.22.54,1,1.24-.15.48-.66,1.14-1.06,1.17-1.51.14-3,0-4.55.08-1.09,0-1.4-.47-1.36-1.48C145.52,124.6,145.48,123,145.48,121.35Z" transform="translate(-1.3 -33.41)"/><path class="cls-1" d="M65.17,96.74l9.14,9.49.59-.21V96.53c1.12,1.08,1.44,9.09.88,12.25L66,99.6v5.16c0,1.08,0,2.17,0,3.25,0,.33-.36.65-.55,1-.19-.34-.53-.67-.54-1,0-2.55,0-5.09,0-7.64V97Z" transform="translate(-1.3 -33.41)"/><path class="cls-1" d="M26.78,96.77c3.51,0,5.71,1.42,6.59,4a6.31,6.31,0,0,1-2,7c-1.81,1.47-3.93,1.36-6,1.18-.27,0-.69-.68-.7-1-.05-3.36-.07-6.72,0-10.07C24.66,96.09,26.19,97.13,26.78,96.77Zm-1.12,6.12a36.43,36.43,0,0,0,.05,4,1.68,1.68,0,0,0,1.14,1.13,5.1,5.1,0,0,0,5.7-5.06A5.2,5.2,0,0,0,27,97.68c-.95,0-1.4.34-1.38,1.32C25.68,100.29,25.66,101.59,25.66,102.89Z" transform="translate(-1.3 -33.41)"/><path class="cls-1" d="M37.94,102.8c0-1.57,0-3.15,0-4.71a1.62,1.62,0,0,1,.71-1.22,6.36,6.36,0,0,1,8.16,7.32A6.45,6.45,0,0,1,38.72,109a1.6,1.6,0,0,1-.75-1.18C37.89,106.16,37.94,104.48,37.94,102.8Zm1,.06c0,1.36-.08,2.72,0,4.06,0,.43.61,1.13,1,1.14,2.09.07,4-.45,5.18-2.41A5.2,5.2,0,0,0,40,97.76,1.68,1.68,0,0,0,39,99,36.22,36.22,0,0,0,38.93,102.86Z" transform="translate(-1.3 -33.41)"/><path class="cls-1" d="M55.69,96.34,61,108.8l-.58.39c-.35-.46-.92-.87-1-1.38-.48-2.06-1.78-2.64-3.71-2.34a4.36,4.36,0,0,1-1.3,0c-1.24-.16-1.85.44-2.29,1.55-.31.79-.29,2-2,2Zm-2.44,8.07h4.67c-.77-1.82-1.42-3.38-2.08-4.93l-.5.1Z" transform="translate(-1.3 -33.41)"/><path class="cls-1" d="M93.21,103.67c-.1,1.76-.19,3.52-.3,5.58-1-1.2-1.14-10.91,0-12.36l.34,5c2.52-1.45,3.69-4.27,6.27-5.2l.4.43-3.82,3.76c-1.67,1.64-1.66,1.63,0,3.4,1.39,1.49,2.75,3,4.12,4.52l-.33.47a8.81,8.81,0,0,1-1.8-1.12c-1.45-1.5-2.8-3.09-4.2-4.65Z" transform="translate(-1.3 -33.41)"/><path class="cls-1" d="M86.7,98.72c-.47-.31-.83-.57-1.22-.8a2.31,2.31,0,0,0-3.26.72c-.63,1.1-.22,2.07,1.23,2.86a26.93,26.93,0,0,1,3.13,1.7,3,3,0,0,1,.87,3.8,3.74,3.74,0,0,1-3.9,2.33,3.42,3.42,0,0,1-3.15-2.41c-.05-.17.07-.39.17-1a10.35,10.35,0,0,1,1.1,1.08,2.4,2.4,0,0,0,3.11,1A3.74,3.74,0,0,0,86.52,106c.39-1.37-.67-2.15-1.81-2.7-.87-.43-1.78-.81-2.6-1.32a2.59,2.59,0,0,1-1.25-3.08,3,3,0,0,1,3-2.31A2.84,2.84,0,0,1,87,98.12C87,98.18,86.88,98.31,86.7,98.72Z" transform="translate(-1.3 -33.41)"/><path class="cls-1" d="M7.36,98.7A15.3,15.3,0,0,0,6,97.83a2.28,2.28,0,0,0-3.11.81c-.66,1.3-.05,2.17,1.1,2.78.86.45,1.77.81,2.62,1.29a3.14,3.14,0,0,1,1.65,4,3.87,3.87,0,0,1-3.85,2.66,2.94,2.94,0,0,1-3-3.19c.37.35.78.67,1.11,1a2.74,2.74,0,0,0,4.66-.61,2.27,2.27,0,0,0-1.17-3c-1.08-.61-2.25-1.07-3.3-1.72a2.58,2.58,0,0,1-1-3.14,3,3,0,0,1,3.09-2.16,2.7,2.7,0,0,1,2.92,1.57C7.63,98.2,7.53,98.32,7.36,98.7Z" transform="translate(-1.3 -33.41)"/><path class="cls-1" d="M20.62,97.1a38.21,38.21,0,0,0-3.16,5.77,32.8,32.8,0,0,0-1,6.14L16,109c-.29-2.08-.28-4.27-1-6.22s-2.11-3.84-3-5.93c2.19,1,2.49,3.58,4.12,5.19,1.7-1.47,1.87-4.21,3.89-5.36Z" transform="translate(-1.3 -33.41)"/><path class="cls-1" d="M5.88,115.37a14.85,14.85,0,0,1,3.06.06,2.91,2.91,0,0,1,1.23.9.44.44,0,0,1,0,.61c-.38.39-.75.82-1.15.85a53.55,53.55,0,0,1-6.46,0c-.4,0-.77-.46-1.15-.85a.44.44,0,0,1,0-.61,2.86,2.86,0,0,1,1.22-.9A17.37,17.37,0,0,1,5.88,115.37Z" transform="translate(-1.3 -33.41)"/><path class="cls-1" d="M5.9,125.19a17.26,17.26,0,0,1,3.22.06,1.65,1.65,0,0,1,.84.66.87.87,0,0,1-.05,1.16,1.34,1.34,0,0,1-.79.51,66.66,66.66,0,0,1-6.78,0c-.27,0-.53-.29-.79-.6a.87.87,0,0,1,0-1.11,1.57,1.57,0,0,1,.8-.62A24.57,24.57,0,0,1,5.9,125.19Z" transform="translate(-1.3 -33.41)"/><path class="cls-1" d="M5.8,122.73a22.64,22.64,0,0,1-3.4-.06,1.74,1.74,0,0,1-.88-.67.73.73,0,0,1,0-.93c.28-.35.55-.69.85-.71a64.46,64.46,0,0,1,6.81,0c.29,0,.57.32.85.64a.72.72,0,0,1,0,1,2,2,0,0,1-1,.69,19.31,19.31,0,0,1-3.23,0Z" transform="translate(-1.3 -33.41)"/></g></svg>