<svg id="Layer_1" data-name="Layer 1" xmlns="http://www.w3.org/2000/svg" viewBox="0 0 156 95.59"><defs><style>.cls-1{fill:#d0d0b8;}</style></defs><title>logo-work-fri-bike-shop</title><path class="cls-1" d="M36.91,93.18H13.18c-1.21,0-2.42,0-3.63,0a2.66,2.66,0,0,1-2.33-1A1,1,0,0,1,7,91.59Q7,79.26,7,66.94c0-.59.49-.77.87-1A4.6,4.6,0,0,1,10,65.51q7.49,0,15,0c4.23,0,8.45,0,12.68,0,8.71,0,17.42,0,26.13,0a4.81,4.81,0,0,1,4,2c2.35,3.17,4.72,6.32,7.07,9.49a3.81,3.81,0,0,1,0,4.64q-3.39,4.68-6.8,9.33a5.17,5.17,0,0,1-4.44,2.23C54.75,93.15,45.83,93.18,36.91,93.18Z" transform="translate(-7 -33.41)"/><path class="cls-1" d="M7.05,33.41h58a2,2,0,0,1,.91.25,7.07,7.07,0,0,1,2.25,2.07c2.18,2.93,4.37,5.85,6.53,8.79a3.89,3.89,0,0,1,0,4.93c-2.23,3.1-4.48,6.18-6.73,9.27a5,5,0,0,1-4.25,2.12H9.63a2.85,2.85,0,0,1-2.38-1A.94.94,0,0,1,7,59.35Q7,46.57,7,33.78C7,33.68,7,33.58,7.05,33.41Z" transform="translate(-7 -33.41)"/><path class="cls-1" d="M22,97.84c4,0,7.92,0,11.87,0a5.43,5.43,0,0,1,4.74,2.43c2,2.78,4.11,5.52,6.16,8.27.28.39.55.79.81,1.19a3.17,3.17,0,0,1,.2,3.51,28,28,0,0,1-1.92,2.82q-2.7,3.75-5.45,7.48a4.46,4.46,0,0,1-3.77,2c-8.4,0-16.8,0-25.2,0a3.45,3.45,0,0,1-1.3-.28A1.64,1.64,0,0,1,7,123.52q.07-11.94,0-23.88a1.35,1.35,0,0,1,.85-1.38,4.35,4.35,0,0,1,2-.42Z" transform="translate(-7 -33.41)"/><path class="cls-1" d="M78.7,115.59l-1-.12v-1.91c.89,0,1.76,0,2.63,0,1.61.06,3.23.1,4.84.26a2.77,2.77,0,0,1,2,4.57c-.22.32-.46.63-.67.92a10.89,10.89,0,0,1,1.07.87,2.92,2.92,0,0,1-.67,4.59,8.06,8.06,0,0,1-3.91.9c-1,0-2,0-2.95,0s-1.34-.31-1.34-1.38v-8.68Zm2.62,4.78c0,.85,0,1.68,0,2.51,0,.63.29.91.92.91a14.37,14.37,0,0,0,2-.11A1.56,1.56,0,0,0,85.66,122a1.51,1.51,0,0,0-1.45-1.65C83.27,120.3,82.33,120.37,81.32,120.37Zm.05-1.92c.9,0,1.76.06,2.61,0a1.38,1.38,0,0,0,1.17-1.52,1.36,1.36,0,0,0-1.29-1.37c-.74,0-1.49,0-2.24,0-.08,0-.24.13-.24.2C81.36,116.64,81.37,117.53,81.37,118.45Z" transform="translate(-7 -33.41)"/><path class="cls-1" d="M155.57,124.94V129h-2.51c0-.28-.06-.56-.06-.84V120c0-.17,0-.34,0-.51a.54.54,0,0,0-.58-.62l-.55-.08c0-.53,0-1.06,0-1.59a.27.27,0,0,1,.21-.19,20.61,20.61,0,0,1,2.22,0c.56,0,.88.46,1.14,1a4.39,4.39,0,0,1,3.8-1.14,4.08,4.08,0,0,1,2.57,1.25,5,5,0,0,1,.46,5.86,4.1,4.1,0,0,1-3.09,1.9A5.67,5.67,0,0,1,155.57,124.94Zm-.07-3.61a2.42,2.42,0,0,0,3.24,2.55,2.58,2.58,0,0,0,1.65-3,2.31,2.31,0,0,0-1.62-2A2.43,2.43,0,0,0,155.5,121.33Z" transform="translate(-7 -33.41)"/><path class="cls-1" d="M127.21,115.43v-1.77c1,0,2,0,3,0,.44,0,.68.49.69,1.07,0,1,0,2,0,3v.51l.36-.32a4.57,4.57,0,0,1,5-.85,2.33,2.33,0,0,1,1.49,2.09c.1,1.09.07,2.2.1,3.29,0,.16,0,.31,0,.47,0,.66.09.76.77.84l.42.07v1.74c-1,0-2,0-2.9,0-.53,0-.81-.4-.82-1,0-1,0-2.11,0-3.16a13.47,13.47,0,0,0-.07-1.56,1.2,1.2,0,0,0-1.25-1.13,2.71,2.71,0,0,0-3.08,2.84v3.95h-2.52c0-.16,0-.32,0-.48,0-3,0-6,0-9.05,0-.44-.13-.6-.56-.57A4.54,4.54,0,0,1,127.21,115.43Z" transform="translate(-7 -33.41)"/><path class="cls-1" d="M125.74,116.9H123.5c-.23-1.1-.61-1.44-1.75-1.43a4.61,4.61,0,0,0-1.51.3,1,1,0,0,0-.64,1,1,1,0,0,0,.66.85c1.28.59,2.57,1.14,3.83,1.77a4.46,4.46,0,0,1,1.34,1.06,3,3,0,0,1-.58,4.38,5.59,5.59,0,0,1-4.53,1,7.71,7.71,0,0,1-3.68-1.77c.42-.46.81-.91,1.24-1.33.06-.06.26,0,.37,0l2.35.94a2.71,2.71,0,0,0,2.24-.2,1,1,0,0,0,.18-1.81,6.59,6.59,0,0,0-1.13-.64c-1-.46-2-.88-3-1.36a3.26,3.26,0,0,1-1.9-2,2.93,2.93,0,0,1,1.3-3.3,6.28,6.28,0,0,1,6.44-.12,1.74,1.74,0,0,1,1,1.54C125.76,116.09,125.74,116.47,125.74,116.9Z" transform="translate(-7 -33.41)"/><path class="cls-1" d="M105.52,117.07l-3,3.87c.52.82,1,1.64,1.58,2.43a1.26,1.26,0,0,0,1.43.42v1.84c-.77,0-1.51,0-2.25,0a1.42,1.42,0,0,1-1.09-.73q-.72-1.1-1.38-2.22a1.45,1.45,0,0,0-1.29-.81c-.28,0-.42.07-.42.4,0,1,0,1.92,0,2.88,0,.13,0,.27,0,.43h-2.5v-10l-1.18-.17v-1.76c1,0,2.06,0,3.08,0,.18,0,.4.24.5.43a1.46,1.46,0,0,1,.11.7c0,1.56,0,3.12,0,4.69v.44a1.58,1.58,0,0,0,2-.65c.37-.53.77-1,1.17-1.56a2,2,0,0,1,1.72-.81c.51,0,1,0,1.54,0Z" transform="translate(-7 -33.41)"/><path class="cls-1" d="M81.43,103.28h4.3v1.9H81.41V110H78.74V100l-1-.13V98h1.67l6.21,0c.88,0,1.21.38,1.19,1.26,0,.56,0,1.12,0,1.7H84.54c-.37-1-.37-1-1.53-1H81.43Z" transform="translate(-7 -33.41)"/><path class="cls-1" d="M151,121.32a4.13,4.13,0,0,1-1.6,3.26,6.64,6.64,0,0,1-7.7.13,4.15,4.15,0,0,1,.11-6.84,6.53,6.53,0,0,1,7.77.36A4.12,4.12,0,0,1,151,121.32Zm-5.66-2.62a3.24,3.24,0,0,0-.38,0,2.61,2.61,0,0,0-.81,5A3.44,3.44,0,0,0,146,124a2.69,2.69,0,0,0,2.43-2.85C148.31,119.68,147.12,118.7,145.35,118.7Z" transform="translate(-7 -33.41)"/><path class="cls-1" d="M109,121.71a2.56,2.56,0,0,0,3,2.24,7.6,7.6,0,0,0,1.4-.3,14.7,14.7,0,0,0,1.37-.56l1,1.45a11.11,11.11,0,0,1-1.38.82,6.79,6.79,0,0,1-5.11.07,4.42,4.42,0,0,1-3-4.42,4.48,4.48,0,0,1,3.41-4.05,5.79,5.79,0,0,1,3.85.26,3.55,3.55,0,0,1,2.25,3.42c0,1.07,0,1.07-1,1.07H109Zm.17-1.56h4a1.7,1.7,0,0,0-1.92-1.66A1.94,1.94,0,0,0,109.18,120.15Z" transform="translate(-7 -33.41)"/><path class="cls-1" d="M91.46,110H88.93v-5.54c0-1,0-1-1-1.27l-.2-.06c0-.49,0-1,0-1.47,0-.08.16-.22.26-.22.73,0,1.46,0,2.19,0a1.35,1.35,0,0,1,1.21,1.32c0,.09,0,.18,0,.39A3.5,3.5,0,0,1,95,101.3c0,.64,0,1.27,0,1.9,0,.08-.17.19-.28.21-.33.06-.68,0-1,.12a2.59,2.59,0,0,0-2.16,2.7c0,1.09,0,2.19,0,3.29Z" transform="translate(-7 -33.41)"/><path class="cls-1" d="M94.49,123.89v1.73c-1,0-1.93,0-2.88,0a.77.77,0,0,1-.74-.74c0-.21,0-.42,0-.63,0-1.43,0-2.87,0-4.31,0-.89-.06-1-.94-1.12l-.24,0V117c1,0,1.93-.05,2.89,0,.55,0,.82.49.82,1.15v4.47c0,.13,0,.26,0,.38,0,.59.13.7.71.79Z" transform="translate(-7 -33.41)"/><path class="cls-1" d="M96.91,101.44c1,0,1.93,0,2.88,0,.48,0,.73.33.75.86s0,1.21,0,1.82c0,1,0,2.06,0,3.08s.09,1,1,1l.19,0V110c-1,0-1.95,0-2.91,0-.49,0-.71-.41-.71-1,0-1.42,0-2.84,0-4.26,0-.22,0-.43,0-.64,0-.64-.13-.76-.76-.8l-.41,0Z" transform="translate(-7 -33.41)"/><path class="cls-1" d="M100.33,100H98.21V98h2.12Z" transform="translate(-7 -33.41)"/><path class="cls-1" d="M91,113.57h2v2H91Z" transform="translate(-7 -33.41)"/></svg>