<svg id="Layer_1" data-name="Layer 1" xmlns="http://www.w3.org/2000/svg" viewBox="0 0 119.83 162.62"><defs><style>.cls-1{fill:#ff6c4a;}</style></defs><title>icon-value1</title><path class="cls-1" d="M131,61.55c7.34,22-7.34,29.36-7.34,29.36-7.34-25.69-11-33-25.69-47.71S96.13,1,96.13,1c-55,22-51.38,73.4-51.38,73.4-7.34,0-11-14.68-11-14.68-22.07,39.72-8.31,68.83,6.17,85.72a56.93,56.93,0,0,0,19.62,14.74c-4.88-5.84-9.55-13.6-9.55-23.29,0-16.24,5.41-18,5.41-18-3.61,10.83,7,14.43,7,14.43C66,120.65,67.8,117.05,75,109.83s.9-20.75.9-20.75c27.06,10.83,25.26,36.08,25.26,36.08,3.61,0,9-7.21,9-7.21,12.59,22.66-2.09,38.29-10,45.67C135,152.39,142,130.61,142,98.25,142,65.22,131,61.55,131,61.55Z" transform="translate(-22.17 -1)"/></svg>