<svg id="Layer_1" data-name="Layer 1" xmlns="http://www.w3.org/2000/svg" viewBox="0 0 91.73 162.49"><defs><style>.cls-1{fill:#89cbff;}</style></defs><title>icon-printdesign</title><path class="cls-1" d="M103.14,163.42,38.22,143.19a1.47,1.47,0,0,1-1-1.4V34.34a1.47,1.47,0,0,1,1.88-1.41L104,51.65a1.48,1.48,0,0,1,1.06,1.41V162A1.47,1.47,0,0,1,103.14,163.42Z" transform="translate(-37.18 -1)"/><path class="cls-1" d="M128.33,21.76l-76,9.51a.51.51,0,0,0-.08,1l57.06,16.46a.5.5,0,0,1,.37.49v86a.51.51,0,0,0,.62.5l18.23-3.77a.52.52,0,0,0,.41-.51V22.27A.51.51,0,0,0,128.33,21.76Z" transform="translate(-37.18 -1)"/><path class="cls-1" d="M67,1.52V25.23a.51.51,0,0,0,.58.51l59.05-7.38a.52.52,0,0,0,.07-1L67.69,1A.52.52,0,0,0,67,1.52Z" transform="translate(-37.18 -1)"/></svg>