<svg id="Layer_1" data-name="Layer 1" xmlns="http://www.w3.org/2000/svg" viewBox="0 0 180 180"><defs><style>.cls-1{fill:none;}.cls-2{fill:#df3826;}.cls-3{fill:#fff;}</style></defs><title>icon-instagram</title><path class="cls-1" d="M37.78,64.54c.14-.33.3-.66.44-1l-.19.13S38,64,37.78,64.54Z" transform="translate(0.17 0)"/><path class="cls-2" d="M36.81,67.06a21.6,21.6,0,0,0,1-2.52C37.43,65.36,37.11,66.21,36.81,67.06Z" transform="translate(0.17 0)"/><path class="cls-3" d="M116,49.54a53.8,53.8,0,0,0-10.82-.85c-11.81,0-23.63,0-35.44.18a32.17,32.17,0,0,0-7,.91A16.62,16.62,0,0,0,49.89,61.73a30.94,30.94,0,0,0-1.22,8.38c-.16,6.61-.25,13.22-.36,19.82h.16c0,4.69-.1,9.39,0,14.08a89,89,0,0,0,.81,11.44c1.2,7.63,5.6,12.62,13.17,14.62a44.23,44.23,0,0,0,10.94,1.09c8.47.11,17,.2,25.42.11,5.17-.05,10.37-.18,15.51-.72,8.08-.84,13.52-5.67,15.56-13.29A44.16,44.16,0,0,0,131,106.4q.17-12.83.12-25.65A116.59,116.59,0,0,0,130.41,65C129.26,56.77,124.07,51.21,116,49.54ZM89.8,115.84A25.9,25.9,0,1,1,115.68,90,25.87,25.87,0,0,1,89.8,115.84Zm26.85-46.69a6.06,6.06,0,1,1,0-12.12,6,6,0,0,1,6.07,6.08A6.08,6.08,0,0,1,116.65,69.15Z" transform="translate(0.17 0)"/><path class="cls-3" d="M90,73.13A16.81,16.81,0,1,0,106.6,89.94,16.8,16.8,0,0,0,90,73.13Z" transform="translate(0.17 0)"/><path class="cls-3" d="M89.83,0a90,90,0,1,0,90,90A90,90,0,0,0,89.83,0Zm50.23,106.69a51.81,51.81,0,0,1-1.39,12.83q-4.3,15.66-20.08,19.52a59.35,59.35,0,0,1-13.16,1.22c-5.48.08-11,0-16.46,0v.23c-6.72-.14-13.43-.24-20.14-.44a34.12,34.12,0,0,1-13.31-2.84,25.66,25.66,0,0,1-14.42-16.9,49.46,49.46,0,0,1-1.62-13.64q-.13-15.34,0-30.7a72.82,72.82,0,0,1,.94-13.43C41.92,54.44,46,48,53.23,43.82a29.93,29.93,0,0,1,12.51-3.76c7.36-.66,14.74-.58,22.12-.55s14.65.12,22,.28a35.81,35.81,0,0,1,13.6,2.62c8.07,3.48,13.06,9.61,15.28,18.06a43,43,0,0,1,1.21,9.16C140.39,82,140.3,94.34,140.06,106.69Z" transform="translate(0.17 0)"/></svg>