<svg id="Layer_1" data-name="Layer 1" xmlns="http://www.w3.org/2000/svg" viewBox="0 0 164 65.65"><defs><style>.cls-1,.cls-2,.cls-3,.cls-4{fill:#89cbff;}.cls-1{opacity:0.25;}.cls-2{opacity:0.5;}.cls-4{opacity:0.75;}</style></defs><title>icon-animation</title><path class="cls-1" d="M23.45,79.28a32.82,32.82,0,0,1,21.1-30.66,32.83,32.83,0,1,0,0,61.32A32.82,32.82,0,0,1,23.45,79.28Z" transform="translate(0 -46.45)"/><path class="cls-2" d="M55.58,79.28A32.82,32.82,0,0,1,77.17,48.43a32.83,32.83,0,1,0,0,61.7A32.83,32.83,0,0,1,55.58,79.28Z" transform="translate(0 -46.45)"/><circle class="cls-3" cx="131.17" cy="32.83" r="32.83"/><path class="cls-4" d="M88.68,79.28a32.83,32.83,0,0,1,21.11-30.66,32.83,32.83,0,1,0,0,61.32A32.83,32.83,0,0,1,88.68,79.28Z" transform="translate(0 -46.45)"/></svg>