<svg id="Layer_1" data-name="Layer 1" xmlns="http://www.w3.org/2000/svg" viewBox="0 0 152.18 163.23"><defs><style>.cls-1{fill:#d0d0b8;}</style></defs><title>logo-work-korup-motion</title><g id="QWGtmL"><path class="cls-1" d="M96.05,28c5.3-.7,10.32-1.38,15.35-2a10.55,10.55,0,0,1,3.71-.09,9.49,9.49,0,0,1,2.19.86A1.77,1.77,0,0,1,118,29.3a4.58,4.58,0,0,1-1.61,1.84c-9.72,5-19.67,9.17-32.34,6.91,4.24,4.93,8.22,8.8,11.28,13.3a198.08,198.08,0,0,1,12.86,21.37c1.75,3.43,2.78,8.91-1.5,10.88s-6.09-3.31-7.82-6.26A61.48,61.48,0,0,0,78.38,56.12c-4.72,12.53-13.67,21-24.77,27.29-1.39.79-3.26.75-5.1.73A2.19,2.19,0,0,1,46.32,82a15.37,15.37,0,0,1,.44-5.2,19.14,19.14,0,0,1,4.31-7.12c10.78-11,16.56-24.56,21.37-38.85,1.47-4.35,4.75-8.25,7.79-11.84,1.45-1.71,4.21-2.81,6.53-3.17C95.89,14.37,99.7,19.21,96.05,28Z" transform="translate(-5.82 -0.81)"/><path class="cls-1" d="M137.37,127.76c-.22,3,0,5.78-.73,8.26-.47,1.72-2,4.13-3.35,4.4a5.48,5.48,0,0,1-6.78-4.54,8.86,8.86,0,0,1-.13-2.52c.73-9.9,1.32-19.83,2.33-29.7.63-6.16,3.56-7.2,9-3.67.38.25.74.54.15.11,4.07-.82,7.27-1.8,10.51-2,4.23-.29,7.24,2.06,8.37,6,1.91,6.76,1.89,13.53-1.63,19.87C151.28,130.88,144.3,132.44,137.37,127.76Zm9.49-14.36c0-.62.25-1.41,0-1.84-.59-.87-1.22-1.71-1.86-2.54a3.06,3.06,0,0,0-4.48-.44,10.92,10.92,0,0,0-2.07,2.35c-.71,1.15-.25,3-.3,4.58-.1,2.95.34,6.58,3.64,6.34,1.84-.14,3.48-3.91,5.05-6.16C147.17,115.17,146.86,114.18,146.86,113.4Z" transform="translate(-5.82 -0.81)"/><path class="cls-1" d="M16.3,120.26a43,43,0,0,0-.6,5.11c0,2.75-.27,5.11-3.89,4.91-3.32-.19-6.06-1.44-6-5.14.11-6.52.66-13,1-19.54.25-4.19.48-8.38.78-12.56.19-2.64,0-5.48,4.1-5.33,3.59.14,6.33,1.44,6.46,5.22.15,4-.45,8-.79,12.91l6-5.4c1.71-1.52,3.24-3.75,5.83-1.2,2.74,2.7,3.23,6.43.65,8.63-2.09,1.78-4.64,3-7.62,4.92,2.86,3.09,5.56,6.2,8.47,9.1,2.24,2.24,3.13,4.92.47,6.71-1.74,1.17-5.43,1.56-6.94.48C21.26,126.92,19.12,123.5,16.3,120.26Z" transform="translate(-5.82 -0.81)"/><path class="cls-1" d="M51.48,98c9.34,0,13.65,4.29,13.69,13.67.07,13-8,20.24-20.85,18.7-5.85-.71-9.15-4.47-9.88-12.17C33.34,106.56,39.17,97.38,51.48,98Zm2.2,17.15c-.37-.19,1-2,.61-2.21.32-3,.16-6.07-3.49-6.47-3.3-.36-5.32,2-5.39,5.12a38.49,38.49,0,0,0,1.35,9.56c.11.45,3.13,1,3.51.49C52.21,119.09,52,117.87,53.68,115.13Z" transform="translate(-5.82 -0.81)"/><path class="cls-1" d="M113.2,127.79c-3,1-5.49,2.32-8.13,2.53-6.43.53-10.27-3.46-9.92-9.95.31-5.9.91-11.78,1.22-17.68.14-2.66.71-4.84,3.89-4.49,2.95.32,6.15.82,6.07,5-.06,3.42-.26,6.84-.46,10.25-.08,1.4-.73,2.9-.38,4.14.45,1.57,1.65,2.92,2.53,4.37,1.29-.94,3.41-1.66,3.71-2.84,1.12-4.48,1.67-9.11,2.4-13.69.46-2.93-1.32-7.18,4.06-7.23,4.5-.05,6.2,2.19,6,7.91-.24,6.22-.72,12.42-1,18.63-.26,5.45-3,7.13-7.9,4.61A12.09,12.09,0,0,1,113.2,127.79Z" transform="translate(-5.82 -0.81)"/><path class="cls-1" d="M81.4,106.86c-.72,2.21-1.76,4.37-2.09,6.63-.57,4-.8,8-1,12-.1,2.53-.23,4.8-3.57,4.75-3-.06-6.24-1-6.19-4.32.13-8.49.74-17,1.66-25.46.32-2.94,4.12-3.17,8.14-.76A14,14,0,0,1,79.89,101a24.38,24.38,0,0,1,3-2c3.35-1.59,6.63-1.8,9.28,1.33,2.3,2.73,1.88,7.52-.74,10.26C88.07,114.14,85,113,81.4,106.86Z" transform="translate(-5.82 -0.81)"/><path class="cls-1" d="M56.15,157.43l-4.9,5.93a.52.52,0,0,1-.85-.05l-4-6.27a19.39,19.39,0,0,1-.1,4.35c-.18.93-1.61,2.44-2.08,2.31-1.08-.31-2.75-1.47-2.74-2.27a137.72,137.72,0,0,1,.93-14.36c.07-.69,2-1.86,2.67-1.64,1.74.55,3.84,1.41,4.72,2.81,1.08,1.72,1,4.12,1.73,7.38.81-3,1.46-4.86,1.81-6.8.57-3.21,2.54-3.93,5.42-3.53,3.06.44,3.65,2.45,3.43,5.06a84.78,84.78,0,0,1-.88,9.72c-.25,1.29-1.56,2.37-2.52,3.52a.3.3,0,0,1-.49,0A19.74,19.74,0,0,1,56,159.84,4.66,4.66,0,0,1,56.15,157.43Z" transform="translate(-5.82 -0.81)"/><path class="cls-1" d="M105.26.81C108.12,1,110,3.11,110,6.76c.11,4.28-5.07,9.47-9.3,9.38-2.94-.06-6.07-3.88-5.95-7.27C94.92,5.32,100.3.8,105.26.81Z" transform="translate(-5.82 -0.81)"/><path class="cls-1" d="M115.83,155.83a39.87,39.87,0,0,1-1.18,4.73,12.4,12.4,0,0,1-2.11,3.11.18.18,0,0,1-.29,0c-1-1.11-2.47-2.2-2.51-3.35a89.19,89.19,0,0,1,.69-10.41.18.18,0,0,1,.17-.17c3-.16,6.07-.74,8.92-.22,1.6.28,3.81,2.31,4.07,3.83.47,2.82-.16,5.86-.64,8.75-.12.69-1.8,1.83-2.18,1.64-1.09-.56-2.48-1.6-2.65-2.63a24.86,24.86,0,0,1-.17-5Z" transform="translate(-5.82 -0.81)"/><path class="cls-1" d="M69.43,164c-4.39.06-6.55-2-6.61-6.47-.08-5,2.8-8.21,7.36-8.31s6.82,2,6.94,6.21C77.27,160.41,74.09,164,69.43,164Zm-.5-4.63,1.07.15a.73.73,0,0,0,.83-.64l.46-3.63a.74.74,0,0,0-.67-.83c-.72-.06-1.48-.14-1.52,0a37.3,37.3,0,0,0-.8,4.11A.75.75,0,0,0,68.93,159.39Z" transform="translate(-5.82 -0.81)"/><path class="cls-1" d="M94.59,157.3c.06-5.33,2.78-8.06,8-8,4.14.08,6.25,2.26,6.15,6.35-.12,5.23-3.13,8.42-7.87,8.36C96.52,164,94.54,161.85,94.59,157.3Zm6.35,2h0a1.13,1.13,0,0,0,1.4-.91l.61-3.65-2.2-.45-.82,3.39A1.35,1.35,0,0,0,100.94,159.28Z" transform="translate(-5.82 -0.81)"/><path class="cls-1" d="M93.25,156.44a18.48,18.48,0,0,1-.31,4.61A6.83,6.83,0,0,1,91,163.41a.64.64,0,0,1-.89,0c-.85-.77-1.91-1.51-2-2.35a33.51,33.51,0,0,1,.32-8.31c.2-1.17,1.59-2.13,2.44-3.18a18.7,18.7,0,0,1,2.47,3.64c.36.9-.09,2.12-.17,3.2Z" transform="translate(-5.82 -0.81)"/></g><path class="cls-1" d="M85.47,152.53c3.53-3.53-1.83-3.34-1.56-6-1.23.33-3.29.35-3.54,1,0,.11-.07.21-.11.31A3.18,3.18,0,0,0,78,151.13a3.77,3.77,0,0,0,.19,1.17v.06c.2,1.69.74,2,.74,2,.32.1-.66,3.32-.34,3.42.12,1.38-.26,3.49.47,4a11.92,11.92,0,0,0,5.54,1.69c.34,0,1.62-3.28,1.28-3.56C82.54,157.3,82.66,155.34,85.47,152.53Z" transform="translate(-5.82 -0.81)"/></svg>