<svg id="Layer_1" data-name="Layer 1" xmlns="http://www.w3.org/2000/svg" viewBox="0 0 163.9 144.7"><defs><style>.cls-1{fill:#d0d0b8;}</style></defs><title>logo-work-eb</title><g id="oqyhJb"><path class="cls-1" d="M.05,10.3H163.89v1.88q0,62.72,0,125.43c0,1.48-.38,2-1.84,2.31-13.47,2.53-26.92,5.15-40.38,7.74q-19,3.65-38,7.26a7.86,7.86,0,0,1-2.81-.13q-32.05-6.25-64.1-12.57c-5.25-1-10.49-2.09-15.74-3.09C.3,139,0,138.73,0,138a8.51,8.51,0,0,0,0-1V10.3ZM10.1,125c.37,0,.61.08.84.08,6.59,0,13.19,0,19.78,0a14.83,14.83,0,0,0,4.75-.87,8,8,0,0,0,5.59-7.85c0-3.5-1.78-5.91-5.48-7.41l-2-.8c1-.44,1.83-.73,2.58-1.13a6.87,6.87,0,0,0,2.73-9.71,8.12,8.12,0,0,0-7.13-4.11c-7.07-.12-14.15-.05-21.22-.05a1.61,1.61,0,0,0-.44.13Zm0-69.86V87.1H37.69V81H17.53V73.63H33.6c0-1.47-.08-2.76,0-4S33.35,67.94,32,68c-4.25.08-8.51,0-12.77,0-.55,0-1.11,0-1.84-.08,0-2,.07-3.83,0-5.68-.06-1.24.3-1.65,1.59-1.63,5.12.07,10.23,0,15.35,0h1.9V55.17Zm91,49.64-.42.25a3,3,0,0,0-.23-.52c-3.83-5.32-12.49-4.61-16.28,1.24-2.57,4-2.69,8.29-1.52,12.69,1,3.89,3.43,6.63,7.47,7.52s7.62.21,10.35-3.18c.2-.24.45-.42.92-.87v3.53h6.2V93.37H101.1ZM71.48,121.94c2.82,4.44,6.08,5.51,10.28,3.38a1.59,1.59,0,0,0,.86-.93,19.59,19.59,0,0,0,0-2.78c-.45,0-.73,0-1,0-3.27.1-3.84-.45-3.91-3.72s-.22-6.69-.18-10a5.46,5.46,0,0,0-3.77-5.66,21.73,21.73,0,0,0-14.75-.1,6.09,6.09,0,0,0-3.85,6.79h6.14c.28-1.7,1.16-2.85,2.88-2.94a24.39,24.39,0,0,1,4.83.2c1.46.22,2.2,1.55,2.07,3.14s-1.21,1.58-2.34,1.76a100.31,100.31,0,0,0-10.69,1.86c-3.41.91-4.65,3.29-4.45,7.07a6.06,6.06,0,0,0,5.14,5.88c4.68,1,9.08.69,12.28-3.56A3,3,0,0,1,71.48,121.94ZM40.64,55.05V87.13h6.5c0-1.75,0-3.41,0-5.07a2.28,2.28,0,0,1,.29-1.33c1-1.2,2.12-2.3,3.32-3.57.43.68.72,1.1,1,1.54,1.54,2.53,3.06,5.07,4.63,7.59.23.37.64.88,1,.89,2.46.07,4.93,0,7.62,0-.33-.58-.51-1-.74-1.3-2.69-4-5.35-7.92-8.12-11.81a1.61,1.61,0,0,1,.23-2.51c2-2,3.93-4.17,5.88-6.27.37-.39.72-.8,1.3-1.46-2.56,0-4.75-.06-6.94,0a2.73,2.73,0,0,0-1.69.75c-2.21,2.32-4.34,4.71-6.51,7.07-.32.35-.69.66-1.25,1.2V55.05Zm86.81,15.73h5.9a6,6,0,0,1,8.36-2.62A3.33,3.33,0,0,1,143,71.71c-.27,1.29-1.38,1.16-2.27,1.32s-2.1.17-3.13.36a71,71,0,0,0-8.37,1.73c-2.63.83-3.8,3-3.86,5.78s.86,4.8,3.26,6.08c3.56,1.91,10.48,2.28,14.06-2.61a6.81,6.81,0,0,0,.44-1c.47.9.71,1.31.91,1.74a4.88,4.88,0,0,0,4.49,3,13.23,13.23,0,0,0,4.32-.72c2.41-.83,2.5-1.19,2-4-.4,0-.81,0-1.22.08-3.3.28-4.28-.6-4.3-3.88s0-6.41,0-9.61c0-3.37-.27-4.53-4.53-6.19A20,20,0,0,0,135,63.1C130.2,63.67,127.55,66.42,127.45,70.78Zm9,44.47c0-4.27-1-8-4.08-10.92-4.32-4.08-11.66-4.26-16.65-.45-4.78,3.64-6.19,10.93-3.18,16.47,3.86,7.12,15.91,8.78,21.59,3a7.93,7.93,0,0,0,2.28-5c-1.84,0-3.55-.06-5.26,0a1.91,1.91,0,0,0-1.35.86,3.75,3.75,0,0,1-3,2.23,16.35,16.35,0,0,1-4.42,0,5.08,5.08,0,0,1-4.19-6.19ZM64,80.25c.06.65.06,1.12.15,1.58.58,3.12,2.64,4.87,5.51,5.82a19.88,19.88,0,0,0,9.07.5A16,16,0,0,0,82.87,87a6.82,6.82,0,0,0,4.41-7.68c-.44-2.83-3-5.16-6.29-5.65-2.74-.41-5.48-.79-8.22-1.23a2.56,2.56,0,0,1-2.32-2.34A2.11,2.11,0,0,1,72.56,68a23.75,23.75,0,0,1,5.53.19c.69.12,1.2,1.27,1.77,2,.24.3.43.9.65.91,1.94.07,3.88,0,5.86,0a6.27,6.27,0,0,0-2.7-5.75c-4.15-3.17-12.19-3.25-16.39-.14a7,7,0,0,0-2.67,7.38c.52,2.67,2.49,4.41,5.45,4.94s5.83,1,8.75,1.49c1.09.18,2.09.51,2.14,1.88a2.14,2.14,0,0,1-2,2.29,31.76,31.76,0,0,1-5.25.29A3.44,3.44,0,0,1,70.39,81a1.34,1.34,0,0,0-1-.72C67.71,80.21,66,80.25,64,80.25Zm79.36,13.29c-.44,2.42-.86,4.76-1.29,7.1a1.56,1.56,0,0,1-1.85,1.49c-1.17-.07-2.35,0-3.54,0V107h4.66c0,2.43,0,4.67,0,6.91,0,2.53,0,5.07.19,7.58a5.07,5.07,0,0,0,3.32,4.5,12.26,12.26,0,0,0,9.22-.25c.35-.15.81-.52.84-.83a28.84,28.84,0,0,0,.05-3.09c-1.63,0-3,.07-4.39,0-1.74-.11-2.46-.94-2.47-2.67q0-5.58,0-11.18a7.85,7.85,0,0,1,.17-1.06h6.19v-4.86h-6.43V93.54Zm-37.27-9.79c-1.24,0-2.43,0-3.62,0-2.25-.08-3.09-.94-3.1-3.19,0-3.59,0-7.17,0-10.76,0-.41.06-.82.1-1.36h6.09V64H99.36V55.21c-1.29,0-2.43,0-3.56,0-1-.06-1.28.3-1.4,1.28-.23,2-.64,4-1,5.92a1.94,1.94,0,0,1-2.24,1.72c-1.23-.06-2.46,0-3.78,0v4.44h5.38v1.6c0,3.78-.12,7.56-.11,11.33s1.94,6.27,5.49,6.73a12.93,12.93,0,0,0,5.37-.31c3.46-1.06,2.74-.48,2.72-3.89C106.22,84,106.18,83.91,106.11,83.75Zm20.46-20.36a10.77,10.77,0,0,0-10.64,4.44V64.22H109.7V87.34h6.49V85.53c0-3.06-.06-6.13,0-9.18.18-4.47,2.73-6.9,7.21-7,1,0,2.06,0,3.12,0ZM44.2,125.26h6.61v-32c-1.78,0-3.49.07-5.19,0-1.22-.07-1.51.38-1.51,1.55,0,9.74,0,19.48,0,29.23C44.13,124.37,44.17,124.75,44.2,125.26Z" transform="translate(-0.03 -10.3)"/><path class="cls-1" d="M17.29,119.22v-8.5c1.08,0,2.11,0,3.14,0,2.87.06,5.75-.06,8.59.25a4.17,4.17,0,0,1,3.07,6.55,4.29,4.29,0,0,1-3,1.63C25.24,119.34,21.33,119.22,17.29,119.22Z" transform="translate(-0.03 -10.3)"/><path class="cls-1" d="M17.44,98.38c3.93,0,7.61-.11,11.28,0,2.32.09,3.4,1.43,3.4,3.62s-1.1,3.65-3.44,3.74c-3.43.13-6.88.1-10.32.07a1.19,1.19,0,0,1-.88-.75C17.41,102.9,17.44,100.71,17.44,98.38Z" transform="translate(-0.03 -10.3)"/><path class="cls-1" d="M100.56,113.59a35.47,35.47,0,0,1-1.29,4.82c-1.08,2.51-3.08,3.49-5.8,3.18-2.21-.26-3.68-1.66-4.29-4.2a13.6,13.6,0,0,1,.16-7.64,4.84,4.84,0,0,1,4.29-3.67,5,5,0,0,1,5.46,2.82A30.79,30.79,0,0,1,100.56,113.59Z" transform="translate(-0.03 -10.3)"/><path class="cls-1" d="M70.78,114.06c.51,5.08-2.84,8.19-7.72,7.27a2.62,2.62,0,0,1-2.4-2,2.76,2.76,0,0,1,1.21-3.13,9,9,0,0,1,2.75-1.15C66.62,114.67,68.66,114.41,70.78,114.06Z" transform="translate(-0.03 -10.3)"/><path class="cls-1" d="M142.65,75.69c.75,5.37-3.51,9.13-8.19,7.69A2.72,2.72,0,0,1,132.35,81c-.14-1.26.21-2.46,1.42-2.84C136.68,77.2,139.66,76.49,142.65,75.69Z" transform="translate(-0.03 -10.3)"/><path class="cls-1" d="M118.37,111.32a4.93,4.93,0,0,1,4.92-5.5c3.7-.1,5.6,1.7,5.63,5.5Z" transform="translate(-0.03 -10.3)"/></g></svg>