<svg id="Layer_1" data-name="Layer 1" xmlns="http://www.w3.org/2000/svg" viewBox="0 0 161.38 161.57"><defs><style>.cls-1{fill:#d0d0b8;}</style></defs><title>logo-work-faster-eft</title><g id="uMQOiZ"><path class="cls-1" d="M162.87,79.32c1.81,28.9-15.49,64.36-52.43,78.07A80.76,80.76,0,0,1,23.05,26.88C48.44-.48,83.83-3,105.92,4.58,83,1.26,63,6.91,46.06,22.48c-9,8.28-18.34,23.91-19,31.35a92.07,92.07,0,0,0,24.2,8.87c28.27,5.86,53.72-.65,76.59-17.82,5.36-4,10.13-8.83,15.31-13.11,3.37-2.79,7-5.31,10.54-7.85A10.83,10.83,0,0,1,157,22.53c1.47-.42,2.35.32,2.16,1.88a17.26,17.26,0,0,1-1,3.87,102.66,102.66,0,0,1-9.46,17.93c-5.46,8.68-11.26,17.14-16.6,25.89-9.31,15.27-17.07,31.29-22,48.58a118.25,118.25,0,0,0-3.76,20.65,69.77,69.77,0,0,0,56.49-62ZM51.77,128.47a5.59,5.59,0,0,0,.43-.57c6.89-13.41,7.37-26.72-.73-39.85-4.62-7.51-10.88-13.47-17.83-18.76C30.86,67.17,28,65.21,24.89,63a69.47,69.47,0,0,0,26.88,65.45Z" transform="translate(-1.62 -0.89)"/><path class="cls-1" d="M83.08,56.69a18.66,18.66,0,0,1-14.65-7.16c-7.12-8.55-6.55-22.09,1.23-30a18.47,18.47,0,0,1,27.06.14c9.16,9.44,7.8,25.86-2.79,33.49A17.83,17.83,0,0,1,83.08,56.69Z" transform="translate(-1.62 -0.89)"/></g></svg>