<svg id="Layer_1" data-name="Layer 1" xmlns="http://www.w3.org/2000/svg" viewBox="0 0 159 69.6"><defs><style>.cls-1{font-size:33.77px;font-family:Verdana, Verdana;}.cls-1,.cls-3{fill:#d0d0b8;}.cls-2{letter-spacing:0em;}</style></defs><title>logo-work-automovet</title><text class="cls-1" transform="translate(0 29.16)"><tspan class="cls-2">A</tspan><tspan x="22.92" y="0">ut</tspan></text><text class="cls-1" transform="translate(33.32 59.36)">M</text><text class="cls-1" transform="translate(93.72 58.32)">VET</text><path class="cls-3" d="M88.91,77.67,85,82.7a9.37,9.37,0,1,1-7-.32l-3.66-4.71L64.44,92.25l9.89,14.58H88.91l9-14.58Z" transform="translate(-3 -46.6)"/><path class="cls-3" d="M67.81,63.09H65.48V68.3h2.33a13.7,13.7,0,0,1,0-5.21Z" transform="translate(-3 -46.6)"/><path class="cls-3" d="M84.22,51.89V49.55H79v2.34a13.64,13.64,0,0,1,5.2,0Z" transform="translate(-3 -46.6)"/><path class="cls-3" d="M95.43,68.3h2.33V63.09H95.43a13.7,13.7,0,0,1,0,5.21Z" transform="translate(-3 -46.6)"/><path class="cls-3" d="M93.23,57.77l2.31-2.31-3.68-3.68-2.31,2.31A14.31,14.31,0,0,1,93.23,57.77Z" transform="translate(-3 -46.6)"/><path class="cls-3" d="M73.69,54.09l-2.3-2.31L67.7,55.46,70,57.77A14.31,14.31,0,0,1,73.69,54.09Z" transform="translate(-3 -46.6)"/><path class="cls-3" d="M89.55,77.3l1.26,1.27,3.69-3.68-1.27-1.27A14,14,0,0,1,89.55,77.3Z" transform="translate(-3 -46.6)"/><path class="cls-3" d="M70,73.62l-1.26,1.27,3.68,3.68,1.26-1.27A14,14,0,0,1,70,73.62Z" transform="translate(-3 -46.6)"/><path class="cls-3" d="M79,57.23V51.89a13.89,13.89,0,0,0-5.33,2.2l3.79,3.78A10,10,0,0,1,79,57.23Z" transform="translate(-3 -46.6)"/><path class="cls-3" d="M85.76,57.87l3.79-3.78a13.89,13.89,0,0,0-5.33-2.2v5.34A10,10,0,0,1,85.76,57.87Z" transform="translate(-3 -46.6)"/><path class="cls-3" d="M90.08,63.09h5.35a14.16,14.16,0,0,0-2.2-5.32l-3.79,3.79A8.24,8.24,0,0,1,90.08,63.09Z" transform="translate(-3 -46.6)"/><path class="cls-3" d="M70,73.62l3.79-3.78a8.63,8.63,0,0,1-.64-1.54H67.81" transform="translate(-3 -46.6)"/><path class="cls-3" d="M90.08,68.3a8.63,8.63,0,0,1-.64,1.54l3.79,3.78a14.16,14.16,0,0,0,2.2-5.32Z" transform="translate(-3 -46.6)"/><path class="cls-3" d="M73.8,61.56,70,57.77a14.16,14.16,0,0,0-2.2,5.32h5.35A8.24,8.24,0,0,1,73.8,61.56Z" transform="translate(-3 -46.6)"/><path class="cls-3" d="M72.77,65.7a9,9,0,0,1,.39-2.61H67.81a13.7,13.7,0,0,0,0,5.21h5.35A8.94,8.94,0,0,1,72.77,65.7Z" transform="translate(-3 -46.6)"/><path class="cls-3" d="M77.94,65.7" transform="translate(-3 -46.6)"/><path class="cls-3" d="M81.62,56.84a8.89,8.89,0,0,1,2.6.39V51.89a13.64,13.64,0,0,0-5.2,0v5.34A8.89,8.89,0,0,1,81.62,56.84Z" transform="translate(-3 -46.6)"/><path class="cls-3" d="M90.47,65.7a8.94,8.94,0,0,1-.39,2.6h5.35a13.7,13.7,0,0,0,0-5.21H90.08A9,9,0,0,1,90.47,65.7Z" transform="translate(-3 -46.6)"/><path class="cls-3" d="M89.44,61.56l3.79-3.79a14.31,14.31,0,0,0-3.68-3.68l-3.79,3.78A8.85,8.85,0,0,1,89.44,61.56Z" transform="translate(-3 -46.6)"/><path class="cls-3" d="M77.48,57.87l-3.79-3.78A14.31,14.31,0,0,0,70,57.77l3.79,3.79A8.85,8.85,0,0,1,77.48,57.87Z" transform="translate(-3 -46.6)"/><path class="cls-3" d="M80.26,64.13" transform="translate(-3 -46.6)"/><path class="cls-3" d="M85.76,73.52l3.79,3.78a14,14,0,0,0,3.68-3.68l-3.79-3.78A8.88,8.88,0,0,1,85.76,73.52Z" transform="translate(-3 -46.6)"/><path class="cls-3" d="M73.8,69.84,70,73.62a14,14,0,0,0,3.68,3.68l3.79-3.78A8.88,8.88,0,0,1,73.8,69.84Z" transform="translate(-3 -46.6)"/><path class="cls-3" d="M88.87,76.63l-3.11-3.11a8.84,8.84,0,0,1-8.28,0l-3.11,3.11Z" transform="translate(-3 -46.6)"/></svg>