<svg id="Layer_1" data-name="Layer 1" xmlns="http://www.w3.org/2000/svg" viewBox="0 0 163 163"><defs><style>.cls-1{fill:#d0d0b8;}</style></defs><title>logo-work-hc-odense</title><g id="_7kDvNt" data-name="7kDvNt"><path class="cls-1" d="M84.53,0c.33,0,.65.1,1,.11a80.74,80.74,0,0,1,43.07,14.4A82,82,0,0,1,153.9,42.72,79.52,79.52,0,0,1,162,64.8c.56,2.69.92,5.43,1.26,8.16.23,1.85.27,3.72.41,5.58a5.36,5.36,0,0,0,.1.7v4.52c0,.31-.1.62-.11.93a80.71,80.71,0,0,1-14.38,43.1,82.36,82.36,0,0,1-9.45,11.31A81.45,81.45,0,0,1,104.14,160a69.88,69.88,0,0,1-11,2.24c-2.63.29-5.28.45-7.92.68-.23,0-.46.06-.69.1H80c-.33,0-.65-.1-1-.11A80.73,80.73,0,0,1,36,148.51,81.28,81.28,0,0,1,1.1,88.59C1,87.28,1,86,.88,84.65c0-.3-.07-.59-.11-.89V79.24c0-.33.1-.65.11-1A80.41,80.41,0,0,1,2.27,66.08,79.5,79.5,0,0,1,6.86,50.66a81.25,81.25,0,0,1,8.39-15.44A82.16,82.16,0,0,1,43.49,9.87a79.52,79.52,0,0,1,22.08-8.1C68.26,1.21,71,.85,73.73.51,75.58.28,77.45.24,79.32.1A5.46,5.46,0,0,0,80,0ZM82.26,160.94A79.44,79.44,0,1,0,2.85,82.88,79.52,79.52,0,0,0,82.26,160.94Z" transform="translate(-0.77)"/><path class="cls-1" d="M8.05,81.48C7.9,40.76,41.57,6.64,83.49,7.26a74.24,74.24,0,0,1-2.25,148.47C41.15,155.24,8,122.28,8.05,81.48Zm16.88-20c.84,0,1.54,0,2.24,0,.12,0,.26-.16.33-.28.24-.47.46-1,.69-1.44,1.7-3.64,3.39-7.28,5.11-10.92a1,1,0,0,1,.58-.44c1.37-.32,2.75-.6,4.13-.89q8-1.68,16-3.38a1,1,0,0,0,.57-.35q2.55-3.48,5.08-7,4.28-5.89,8.57-11.77a.79.79,0,0,1,.56-.3q13.42,0,26.84,0a.82.82,0,0,1,.58.29c.84,1.12,1.65,2.25,2.47,3.39l7,9.66c1.4,1.92,2.81,3.82,4.2,5.74a1.21,1.21,0,0,0,.8.52c.84.16,1.69.33,2.53.51,5.41,1.14,10.81,2.34,16.23,3.4a2.89,2.89,0,0,1,2.37,1.91c1.63,3.67,3.37,7.29,5.08,10.93.07.14.19.37.3.37.74,0,1.48,0,2.31,0-.1-.26-.16-.42-.23-.57l-5.64-12.07c-.46-1-.47-1,.34-1.71.59-.53,1.2-1,1.81-1.58l.18.23a63.57,63.57,0,0,1,7.21,14.45c.45,1.27.45,1.27,1.8,1.27,1,0,1,.13.67-1a67,67,0,0,0-26.62-34.71,66.2,66.2,0,0,0-23-9.61A64.65,64.65,0,0,0,85.07,14.9a66.58,66.58,0,0,0-20.45,2.31A67,67,0,0,0,22.71,51.59a63,63,0,0,0-3.89,9.47c-.11.36,0,.47.32.46s.88,0,1.32,0a.63.63,0,0,0,.73-.53,63.56,63.56,0,0,1,5.54-12.13c.66-1.1,1.36-2.18,2.07-3.32.76.67,1.46,1.3,2.18,1.9a.53.53,0,0,1,.16.75q-2.8,5.94-5.57,11.89Zm114.33,54.55c-.13-.06-.19-.11-.26-.11-.69,0-1.39,0-2.08,0a.68.68,0,0,0-.42.3c-.44.63-.87,1.27-1.28,1.92a.44.44,0,0,1-.58.21c-1.38-.37-2.79-.63-4.13-1.1a2.63,2.63,0,0,0-2.86.59c-3.14,2.58-6.35,5.05-9.53,7.56l-8.88,7c-1.39,1.09-2.78,2.2-4.19,3.28a.86.86,0,0,1-.66.18L84.2,130.1a.59.59,0,0,1-.51-.68c0-3.93,0-7.86,0-11.79V117H81.48v.58c0,3.91,0,7.83,0,11.74,0,.36-.09.52-.45.62-1.66.46-3.31,1-5,1.44l-15.62,4.51a1,1,0,0,1-1-.14q-3.86-3.06-7.73-6.1L35.93,117.16a.8.8,0,0,0-.77-.15c-1.76.48-3.52.92-5.28,1.39a.42.42,0,0,1-.54-.2c-.41-.64-.85-1.25-1.25-1.89a.69.69,0,0,0-.69-.37c-.56,0-1.13,0-1.69,0a2.66,2.66,0,0,0-.39.07c.9,2.25,6.55,9.41,10.68,13.43a66.56,66.56,0,0,0,85.73,5.76A66.63,66.63,0,0,0,139.26,116.06ZM90.88,88.86c.09.06.12.07.13.09,1.4,2,2.78,4,4.2,5.92s2.91,3.94,4.38,5.9a1.7,1.7,0,0,0,1.35.77,21.36,21.36,0,0,0,2.53,0,1.33,1.33,0,0,0,1.18-1.28c0-.44.06-.88.06-1.31V82c0-.47,0-1-.06-1.41a1.36,1.36,0,0,0-1.31-1.46,10.41,10.41,0,0,0-2.3,0c-1.24.14-1.63.65-1.64,1.92,0,3.47,0,6.94,0,10.42V92c-.15-.18-.23-.27-.3-.37-1.48-2.06-3-4.13-4.46-6.19-1.33-1.85-2.69-3.68-4-5.51a1.87,1.87,0,0,0-1.49-.86,16,16,0,0,0-2.3.08,1.28,1.28,0,0,0-1.2,1.35c0,.28,0,.56,0,.84V95.86c0,1.4,0,2.8,0,4.2a1.35,1.35,0,0,0,1.25,1.46,10.07,10.07,0,0,0,2.39,0c1.23-.15,1.6-.65,1.61-1.89V88.86ZM48,90.25v2.08c0,2.42,0,4.84,0,7.26,0,.78.11,1.55,1,1.84a3.78,3.78,0,0,0,1.15.18c2,0,3.93,0,5.9,0a25.87,25.87,0,0,0,3.83-.37,6.8,6.8,0,0,0,5.73-5.29,26.26,26.26,0,0,0,.49-7.86,14.07,14.07,0,0,0-.7-4,6.32,6.32,0,0,0-4.92-4.57,26.27,26.27,0,0,0-4.06-.45c-2-.07-4,0-6,0a8.44,8.44,0,0,0-1.12.08,1.39,1.39,0,0,0-1.23,1.19,4.78,4.78,0,0,0-.08.84Zm-22.56.17a17.29,17.29,0,0,0,.68,5.44,8.25,8.25,0,0,0,5.27,5.84,13.41,13.41,0,0,0,5.59.54A9.26,9.26,0,0,0,41,101a8.87,8.87,0,0,0,4-5.87,21.54,21.54,0,0,0,.47-6,15.64,15.64,0,0,0-.85-4.84,8.09,8.09,0,0,0-5.9-5.5,14,14,0,0,0-5.23-.24A8.11,8.11,0,0,0,26.41,84,16.86,16.86,0,0,0,25.45,90.42ZM82.49,61h0V56.34c0-1.65,0-3.31,0-5,0-.92-.42-1.55-1.28-1.64a15.52,15.52,0,0,0-2.81,0,1.32,1.32,0,0,0-1.26,1.3,5.51,5.51,0,0,0-.06.7c0,1.87,0,3.74,0,5.61,0,.63,0,.63-.6.62-2,0-4,0-6,0-.48,0-.6-.14-.6-.61,0-2,0-4,0-5.94,0-1-.52-1.7-1.39-1.76a21.52,21.52,0,0,0-2.54,0A1.42,1.42,0,0,0,64.47,51a3.78,3.78,0,0,0,0,.75q0,9.06,0,18.11c0,.25,0,.51,0,.76a1.37,1.37,0,0,0,1.23,1.48,15.72,15.72,0,0,0,3,0A1.24,1.24,0,0,0,69.75,71a4.69,4.69,0,0,0,.08-.84c0-2.4,0-4.81,0-7.21,0-.4.08-.56.52-.54.81.06,1.63.07,2.44.06,1.26,0,2.52,0,3.77-.06.4,0,.51.11.51.5,0,2.25,0,4.5,0,6.75a9.18,9.18,0,0,0,.07,1.17,1.48,1.48,0,0,0,1.55,1.4q.94,0,1.89,0c1.35,0,1.9-.59,1.9-1.94Q82.49,65.6,82.49,61Zm-8.4,31h2.45c1.42,0,2.83,0,4.24,0a1.49,1.49,0,0,0,1.53-1.53q0-.45,0-.9c0-1.39-.53-1.89-1.91-1.92H80l-5.47.08c-.33,0-.47-.07-.47-.44,0-1.1,0-2.2,0-3.3a3.21,3.21,0,0,1,0-.39h1.11c2,0,4,.07,5.94.08,1.27,0,1.84-.56,1.87-1.83,0-.41,0-.82,0-1.22a1.43,1.43,0,0,0-1.34-1.54A4.14,4.14,0,0,0,81,79H73.79c-1,0-2,0-3.06,0a3.43,3.43,0,0,0-1.5.44c-.56.32-.56,1-.56,1.56V99.39a5.4,5.4,0,0,0,.07.8A1.39,1.39,0,0,0,70,101.53a6,6,0,0,0,1,.09H79.4c.66,0,1.32,0,2,0a1.55,1.55,0,0,0,1.68-1.72c0-.45,0-.91,0-1.36A1.42,1.42,0,0,0,81.62,97c-.83,0-1.66,0-2.5,0-1.55,0-3.11.06-4.66.06-.12,0-.35-.18-.35-.29C74.09,95.19,74.09,93.6,74.09,92Zm56.13.05h6a5.55,5.55,0,0,0,1.08-.08c.84-.17,1.25-.83,1.24-2,0-2-.6-2.38-2.32-2.35s-3.65,0-5.47.08c-.39,0-.52-.09-.51-.49,0-.95,0-1.89,0-2.83V83.6h2.43c1.56,0,3.12.07,4.67.07,1.17,0,1.77-.42,1.88-1.47A7.68,7.68,0,0,0,139,80a1.42,1.42,0,0,0-.74-.75,2.53,2.53,0,0,0-1.1-.18c-1.87,0-3.74,0-5.62,0-1.54,0-3.08,0-4.62,0s-2.11.5-2.1,2.09c0,5,0,10.06,0,15.09v3.72a1.45,1.45,0,0,0,1.35,1.59,5.33,5.33,0,0,0,1,.09h9.71c1.89,0,2.35-.45,2.35-2.32S138.81,97,137,97c-2.07,0-4.15,0-6.22.08-.38,0-.54-.07-.52-.49,0-.7,0-1.41,0-2.12ZM113.88,102a17,17,0,0,0,5.07-.65,4.21,4.21,0,0,0,3.12-3.21,17.71,17.71,0,0,0,.19-5.34,3.78,3.78,0,0,0-2.06-3,19.35,19.35,0,0,0-1.75-.91c-1.63-.69-3.28-1.34-4.92-2a1.12,1.12,0,0,1-.8-1.19c0-.44,0-.88,0-1.32a.78.78,0,0,1,.74-.83c.53,0,1.06-.08,1.59-.07,1.77,0,3.55.13,5.32.17a1.3,1.3,0,0,0,1.5-1.42c0-.51,0-1,0-1.55,0-.9-.33-1.36-1.23-1.51s-1.62-.16-2.43-.21a34.43,34.43,0,0,0-6.58.11,4.33,4.33,0,0,0-4.07,3.86,13.29,13.29,0,0,0,0,4.58,3.81,3.81,0,0,0,2,2.88,18.88,18.88,0,0,0,2,1c1.51.63,3,1.23,4.54,1.83a1.29,1.29,0,0,1,.92,1.37c0,.53,0,1.07,0,1.6,0,.71-.28,1.07-1,1.08-1.51,0-3,0-4.52,0-1.08,0-2.16-.12-3.24-.11a1,1,0,0,0-1.08,1,12.48,12.48,0,0,0-.1,1.83c0,1.15.44,1.67,1.57,1.76C110.43,101.75,112.16,101.86,113.88,102ZM90.45,61h0c0-.92-.06-1.86,0-2.77a10.7,10.7,0,0,1,.53-2.37,2.24,2.24,0,0,1,1.75-1.49A16.57,16.57,0,0,1,97,54.11c.85,0,1.7.14,2.54.14,1.18,0,1.64-.49,1.66-1.68,0-.39,0-.78,0-1.18,0-1.1-.41-1.59-1.5-1.7-.92-.1-1.84-.14-2.77-.21a21.3,21.3,0,0,0-5.8.3A6.54,6.54,0,0,0,86,53.94a14.12,14.12,0,0,0-1,4.63,30.32,30.32,0,0,0,.31,7.55,7.18,7.18,0,0,0,5.83,6.14,24.22,24.22,0,0,0,7.31.25,9.93,9.93,0,0,0,1.71-.25,1.21,1.21,0,0,0,1-1.21c0-.59,0-1.19,0-1.79a1.28,1.28,0,0,0-1-1.33,4.67,4.67,0,0,0-1.12-.1c-1.58,0-3.17.14-4.75.14a3.41,3.41,0,0,1-3.71-3.43C90.51,63.35,90.5,62.16,90.45,61Z" transform="translate(-0.77)"/><path class="cls-1" d="M134.4,43.73a3.35,3.35,0,0,0-.22-.34c-1.59-1.92-3.13-3.88-4.78-5.74a55.61,55.61,0,0,0-6.77-6.34,64.17,64.17,0,0,0-14.48-8.81,63,63,0,0,0-8.32-3c-.32-.09-.51-.07-.66.28-.43,1-.88,2-1.36,3a.72.72,0,0,0,.09.85l4.19,5.76q4.56,6.28,9.14,12.58a1,1,0,0,0,.52.34c6.06,1.3,12.14,2.56,18.19,3.88a2.2,2.2,0,0,0,2.41-.63A24.06,24.06,0,0,1,134.4,43.73Zm-104.32,0c1,.85,1.89,1.64,2.81,2.42a.63.63,0,0,0,.47.09c1-.2,2-.42,3.08-.64L52,42.32a2.25,2.25,0,0,0,1.56-.88Q59.89,32.6,66.3,23.82a.68.68,0,0,0,.07-.78C65.89,22,65.42,21,65,20c-.16-.36-.32-.44-.71-.33a63.92,63.92,0,0,0-18.33,8.7A64.64,64.64,0,0,0,32.63,40.48C31.77,41.52,31,42.6,30.08,43.72ZM66.93,18.9c.45,1,.89,1.88,1.25,2.8a1,1,0,0,0,1,.68q12.75,0,25.51,0a2.16,2.16,0,0,0,.51,0,.65.65,0,0,0,.4-.24c.51-1.07,1-2.15,1.53-3.31A65.11,65.11,0,0,0,66.93,18.9Z" transform="translate(-0.77)"/><path class="cls-1" d="M134.4,43.73a24.06,24.06,0,0,0-2.05,1.83,2.2,2.2,0,0,1-2.41.63c-6-1.32-12.13-2.58-18.19-3.88a1,1,0,0,1-.52-.34q-4.59-6.28-9.14-12.58L97.9,23.63a.72.72,0,0,1-.09-.85c.48-1,.93-2,1.36-3,.15-.35.34-.37.66-.28a63,63,0,0,1,8.32,3,64.17,64.17,0,0,1,14.48,8.81,55.61,55.61,0,0,1,6.77,6.34c1.65,1.86,3.19,3.82,4.78,5.74A3.35,3.35,0,0,1,134.4,43.73Z" transform="translate(-0.77)"/><path class="cls-1" d="M30.08,43.72c.88-1.12,1.69-2.2,2.55-3.24A64.64,64.64,0,0,1,45.94,28.32a63.92,63.92,0,0,1,18.33-8.7c.39-.11.55,0,.71.33.44,1,.91,2.07,1.39,3.09a.68.68,0,0,1-.07.78q-6.39,8.79-12.77,17.62a2.25,2.25,0,0,1-1.56.88L36.44,45.59c-1,.22-2,.44-3.08.64a.63.63,0,0,1-.47-.09C32,45.36,31.06,44.57,30.08,43.72Z" transform="translate(-0.77)"/><path class="cls-1" d="M66.93,18.9a65.11,65.11,0,0,1,30.25-.1c-.53,1.16-1,2.24-1.53,3.31a.65.65,0,0,1-.4.24,2.16,2.16,0,0,1-.51,0q-12.75,0-25.51,0a1,1,0,0,1-1-.68C67.82,20.78,67.38,19.9,66.93,18.9Z" transform="translate(-0.77)"/><path class="cls-1" d="M82.27,145.81a60.8,60.8,0,0,1-21-3.4c-.3-.11-.46-.24-.46-.6,0-1.06,0-2.13-.07-3.2,0-.4.12-.57.51-.68l14.68-4.23c2-.58,4-1.17,6-1.73a1.55,1.55,0,0,1,.77,0q7.52,2.15,15,4.33c1.9.54,3.79,1.1,5.7,1.63.35.09.51.23.49.63,0,1,0,2.05,0,3.07a.74.74,0,0,1-.6.8,57.4,57.4,0,0,1-9.54,2.47c-2.55.41-5.13.65-7.7.89C84.76,145.91,83.51,145.81,82.27,145.81Z" transform="translate(-0.77)"/><path class="cls-1" d="M30.94,120.42c1.39-.37,2.68-.71,4-1,.14,0,.35.09.49.2l4.92,3.88,10.36,8.16q3.7,2.93,7.4,5.83a1,1,0,0,1,.41.88c0,.82,0,1.63,0,2.45,0,.17,0,.34,0,.59A65.24,65.24,0,0,1,30.94,120.42Z" transform="translate(-0.77)"/><path class="cls-1" d="M133.6,120.42a65.31,65.31,0,0,1-27.53,21,15.11,15.11,0,0,0,0-2.14,2.39,2.39,0,0,1,1.17-2.41c5.4-4.19,10.75-8.44,16.11-12.67l5.77-4.55a.83.83,0,0,1,.81-.18C131.1,119.78,132.3,120.08,133.6,120.42Z" transform="translate(-0.77)"/><path class="cls-1" d="M53.43,90.32c0-2,0-4.08,0-6.12,0-.4.12-.53.51-.51,1.31.08,2.63.07,3.94.2a2.69,2.69,0,0,1,2.56,2.41,10.57,10.57,0,0,1,.19,1.86c0,1.51,0,3,0,4.53a8.5,8.5,0,0,1-.31,2,3,3,0,0,1-3,2.15c-1.16.11-2.35.07-3.52.12-.35,0-.41-.15-.41-.45C53.44,94.44,53.43,92.38,53.43,90.32Z" transform="translate(-0.77)"/><path class="cls-1" d="M40.08,90.6c-.15,1.31-.26,2.77-.5,4.2a3.05,3.05,0,0,1-2.53,2.64,6.64,6.64,0,0,1-3.4-.06A3,3,0,0,1,31.42,95a22.33,22.33,0,0,1-.05-9A3.21,3.21,0,0,1,35,83.14a9.75,9.75,0,0,1,2.42.23,3.15,3.15,0,0,1,2.32,3C39.86,87.73,39.94,89.09,40.08,90.6Z" transform="translate(-0.77)"/></g></svg>