<svg id="ny_version" data-name="ny version" xmlns="http://www.w3.org/2000/svg" viewBox="0 0 239.72 76.59"><defs><style>.cls-1{fill:#fff;}</style></defs><title>sb-logo</title><path class="cls-1" d="M85.36,11.52v0l-.15-.32c-1.85-3.74-6.34-7.53-16.32-9.47l-.32-.06-.45-.08-.43-.07c-1.26-.22-2.59-.41-4-.57A93.08,93.08,0,0,0,53.51.4C40.79.24,22.33,2.17,8.89,12.68l-.06,0a14.31,14.31,0,0,0-2.09,1.76A14,14,0,0,0,5.38,16C4.88,16.6,4,17.91,4,18c-3.7,5.69-9,17.62,7.71,22.48a177.46,177.46,0,0,0,24.8,5.78c9.42,2,14.26,4.05,16.55,5.92l-.12,0a6.84,6.84,0,0,1,.85.72,2.93,2.93,0,0,1,.56,3.88A9.3,9.3,0,0,1,52,58.81C40.14,64.64,31.79,65,27,64.43a26.87,26.87,0,0,1-4.61-1.17l0,0h0C19,62,15.65,60,16,56.93c.27-2.38,3-4.6,4.68-6l4.63-3.8c.63-.49-.85-.78-.91-.8-4.28-.87-6-1.33-8.48-2a1.17,1.17,0,0,0-1.07.25c-28.38,23.64-2.47,31.69,5.74,32.13l.47,0c2.7.21,4.81.16,4.81.16a65.67,65.67,0,0,0,25-4.4l.49-.2.77-.31.86-.38.49-.22.84-.4.72-.36.38-.19c.67-.34,1.35-.7,2-1.09,17.87-10.26,7.15-17.77,7.15-17.77-7.67-6.73-28.06-11.14-28.06-11.14S16.37,36,14.78,32.82c0,0-4.1-7.29,9.68-13.69l.28-.12h0l.68-.27a36.08,36.08,0,0,1,4.75-1.49c6-1.34,20.41-4.14,33-3.54h.05c8.28.84,11.43,3.39,12.3,5.56a4.23,4.23,0,0,1,.25,1,.17.17,0,0,1,0,.07.76.76,0,0,1,0,.15,2.67,2.67,0,0,1,0,.4.92.92,0,0,1,0,.16c0,.14-.1.39-.17.7-1.22,3.37-9,9.32-32.78,10,9.79-9.18,11.37-11.07,12.34-12.75.08-.15.48-.8-1.17-.47C43.75,21,34.07,27.17,24.2,34.14c-.19.13-.32.46.25.65,4.08,1.14,8.41,2.37,9.76,2.61a23,23,0,0,0,4.28.12c9.86-.83,28.39-1.26,39.94-8.65a14.08,14.08,0,0,0,2.26-1.6c.41-.36.78-.71,1.13-1l.32-.32c2.7-2.72,3.09-4.44,3.09-4.44a12.78,12.78,0,0,0,1-4h0A11.15,11.15,0,0,0,85.36,11.52Z" transform="translate(-0.15 -0.39)"/><path class="cls-1" d="M103.84,26.24c2,1.6,5.4,4.2,8.65,4.2a4.77,4.77,0,0,0,3.1-.9,1.73,1.73,0,0,0-.1-2.6c-2.65-2.25-10.55-5.35-10.55-10.5,0-6.85,7.75-12.7,12.2-14.6,2.4-1,4.8-1.4,6.45.1a9,9,0,0,1,2.5,4.2c.5,2-.7,4-1.45,5a57.59,57.59,0,0,0-3.45,5.55c-.25.45-.55.7-1.1.15-1-.95-1.55-2.5-.5-4.85s4.8-6.55,3.6-7.8c-1.7-1.75-14,5.9-14.25,12.15-.15,3.25,6.25,5.9,9,7.9,1.9,1.35,1.65,3.65-.55,6.2-3,3.45-11.7,4.4-18.75-4.1-.55-.65-.35-1,.1-1.15A5.75,5.75,0,0,1,103.84,26.24Z" transform="translate(-0.15 -0.39)"/><path class="cls-1" d="M126.64,11.14c-.5-.7-.2-1.05.55-1a28.5,28.5,0,0,0,4.15-.2,64.25,64.25,0,0,1,3.8-6.2c.45-.65,1-.6,1.2,0,.55,1.4.55,3.05-.65,5.65a3.13,3.13,0,0,1,3.1,1.5c.35.6.15.95-.6.95a14.92,14.92,0,0,0-3.9.2c-1.95,3.35-4.8,8.2-6.7,12.4-1.65,3.65-1.1,6.75,1,6.85,2.25.1,5.1-3.45,6.95-7.2.3-.6.85-.7,1.05,0a4.18,4.18,0,0,1-.5,2.85c-.65,1.45-4,5.85-8,5.7-3.3-.1-5.95-3.8-3.55-9.55,1-2.5,3.15-6.7,5.3-10.65A4.12,4.12,0,0,1,126.64,11.14Z" transform="translate(-0.15 -0.39)"/><path class="cls-1" d="M140.19,31.24c4.15.2,7.8-3.8,9.95-7.1.25-.4.65-.4.85.05a4.06,4.06,0,0,1-.85,3.1,12.67,12.67,0,0,1-9.8,5.4c-6.35.1-8.55-6.15-5.3-12.6s8.35-9,10.85-7.6a9.3,9.3,0,0,1,3,2.6c.9,1.2.5,4.25-1.6,6.8-2.45,3-5.8,4.3-9.3,1.45C136.34,27.94,137.54,31.09,140.19,31.24Zm4.15-11.5c1.6-2.1,2.7-4.7,2-5.25-1.05-.85-5.2,2.15-7.55,6.9-.15.3-.3.6-.4.85C140.84,23.79,142.89,21.64,144.34,19.74Z" transform="translate(-0.15 -0.39)"/><path class="cls-1" d="M157.24,28.49c0,.55-.05,1.1-.1,1.7a17.2,17.2,0,0,0,5.2-6.35c.3-.6.8-.65,1,.05a5,5,0,0,1-.5,3,12,12,0,0,1-6,5.2c-.8,5-3,10.6-5.4,13.6-1.7,2.1-3,2.3-4.45,1-1.25-1-2.75-3-2.2-7.25,1.4-11.15,12.9-30.3,18.45-38.6.4-.6,1.05-.55,1.25.05.6,1.7.45,3.85-1.7,7.5-2.05,3.4-5.5,9.05-8.2,14.3C156.54,23.29,157.29,25.19,157.24,28.49Zm-9.65,16.25c1.1,1.45,4.85-5.45,6.5-12.3a3.55,3.55,0,0,1-3.05-2C148.24,37.09,146.44,43.29,147.59,44.74Zm7.25-17.35c0-1.85-.45-3.4-.8-3.25-.5.2-.95,2.85-1,4,0,1.6.4,2.65,1.35,2.85A22.85,22.85,0,0,0,154.84,27.39Z" transform="translate(-0.15 -0.39)"/><path class="cls-1" d="M179.59,12.59q.67-1,1.2-.3c.75.9,1.15,3.05,0,5.55-1.1,2.25-3.6,6-4.8,8.65-1.25,2.8-1.3,5,.4,4.85,2-.1,4.8-3.5,6.55-6.95.25-.45.6-.5.8-.05a4.49,4.49,0,0,1-.45,3.1c-1.3,2.75-4.45,5.5-7.2,5.35s-4.1-1.75-4.1-4.1c-1.6,2-3.85,3.9-6.25,3.9-4.65,0-5.6-6.35-1.45-12.4s8-8.15,10.5-8.15c2.15,0,3.15,1.65,3,3.6C178.44,14.44,179,13.39,179.59,12.59Zm-4,2.05c-1.6-.15-5.25,3.1-8,7.55-2.65,4.3-3.3,8.7-1.35,8.75s4.65-3.15,7.2-7.55C176.59,17.89,177,14.79,175.59,14.64Z" transform="translate(-0.15 -0.39)"/><path class="cls-1" d="M197.24,12.29c1.65.25,3.2,2.7,1.95,5.3-1.05,2.2-3.5,5.9-4.65,8.5-1.3,2.9-1,5.25.8,5.15,2-.1,4.5-3.4,6.4-6.9.25-.45.6-.45.85-.05.35.55.25,1.7-.45,3.15-1.35,2.8-4.5,5.35-7.4,5.35-4.25,0-5.25-3.1-3.8-7.45,1.65-4.9,6.05-10.2,5.15-10.6-.5-.2-3.4,1.2-6.6,4.7-3,3.2-5.15,8-7.3,12.7-.2.45-.5.65-.95.2-1-1-1.3-2.65-.5-5.15,1-3.15,4.85-10.1,8-14.75.35-.55.75-.5,1,0a5.93,5.93,0,0,1,.15,4.75C192.19,14.79,195.59,12,197.24,12.29Z" transform="translate(-0.15 -0.39)"/><path class="cls-1" d="M98,48.53c-.25-.55-.1-.8.5-.85,3.5-.3,8-2.75,11.35-3,2.55-.15,5,.65,5.9,4.05A9.23,9.23,0,0,1,114,57.13a20.5,20.5,0,0,1-7.8,5.95,6,6,0,0,1,2.4,2.1c1,1.55,1,4.5-1.15,6.85a17.06,17.06,0,0,1-8.75,4.65,6.31,6.31,0,0,1-4.2-.25,7,7,0,0,1-2.55-2.3c-.75-1.1-1.25-1.9-.1-5.1a93.13,93.13,0,0,1,9.55-18.5A3.75,3.75,0,0,1,98,48.53Zm2.85,16a5.62,5.62,0,0,1-3.1-.35,46.55,46.55,0,0,0-3.35,7.75c-.55,1.75,0,2.35,1.6,2.15A16.48,16.48,0,0,0,105.6,69c1.85-2.3,1.85-4.55-2.7-4.8C102.2,64.33,101.5,64.43,100.8,64.53Zm13-15.3c-1-2.6-5.95-.3-9.4.8.1,1.1-.25,2.6-1.5,4.9-1,1.85-2.45,4.2-3.9,6.75C109,59.38,115.1,52.63,113.85,49.23Z" transform="translate(-0.15 -0.39)"/><path class="cls-1" d="M138.25,76.83c-3.8-.2-5.3-3.6-4.05-7.65,1.05-3.35,4.05-7.05,6.2-9.45a11.64,11.64,0,0,1-6,1.9c-4.15,8.7-9.55,15-15.5,15.1-6.35.1-8.5-6.1-5.25-12.5,3.15-6.2,8.25-9,10.75-7.55a9.17,9.17,0,0,1,2.95,2.55c.85,1.2.35,4.15-1.65,6.7-2.35,3-5.7,4.3-9.2,1.5-1.6,4.55-.35,7.8,2.2,7.9,5.5.25,11-7.65,13.75-14-3.85-1.6,1.05-8.25,3.15-8.35,1.55,0,1.05,3-.2,6.25a13.36,13.36,0,0,0,5.45-2.35c.6-.4,1.05-.65,1.4-.15,1,1.1,2.25,3.5.75,5.15-2.35,2.6-4.9,6-5.75,8.7s-.25,4.75,1.25,4.8c2.1.1,4.65-3.2,6.25-6.9.2-.4.55-.5.75,0a4.49,4.49,0,0,1-.25,3.25C144,74.68,141,77,138.25,76.83Zm-15.4-12.95c1.6-2.05,2.65-4.65,2-5.2-1.1-1-5.2,2.2-7.5,6.8-.15.25-.25.6-.4.85C119.4,67.83,121.35,65.78,122.85,63.88Z" transform="translate(-0.15 -0.39)"/><path class="cls-1" d="M159.45,56.48c1.65.25,3.2,2.7,2,5.3-1.05,2.2-3.5,5.9-4.65,8.5-1.3,2.9-1,5.25.8,5.15,2-.1,4.5-3.4,6.4-6.9.25-.45.6-.45.85,0s.25,1.7-.45,3.15C163,74.43,159.85,77,157,77c-4.25,0-5.25-3.1-3.8-7.45,1.65-4.9,6-10.2,5.15-10.6-.5-.2-3.4,1.2-6.6,4.7-2.95,3.2-5.15,8-7.3,12.7-.2.45-.5.65-1,.2-1-1-1.3-2.65-.5-5.15,1-3.15,4.85-10.1,8-14.75.35-.55.75-.5,1.05,0a5.93,5.93,0,0,1,.15,4.75C154.4,59,157.8,56.23,159.45,56.48Z" transform="translate(-0.15 -0.39)"/><path class="cls-1" d="M176.9,55.88c1.9-.65,3.1.1,4.1,2.2A4.75,4.75,0,0,1,180,63.93,16.3,16.3,0,0,1,173,68c.2,4.1,1.6,7,3.5,7.15,2.05.2,4.8-3.65,6.3-6.75.3-.6.75-.65,1,0a3.79,3.79,0,0,1-.6,3c-1.2,2.1-3.5,5.3-7.45,5.25-3.5,0-6.45-2.9-6.35-9.65,0-.9.1-1,1-1.35,6.2-2,9.5-6.4,8.75-7.7-.55-.9-2.75-.35-5.4,1.7-3.75,2.85-6,7.25-9.85,16.45-.15.4-.55.5-.9.1-.75-.85-1-2.45-.05-5.5,1.4-4.55,9.7-21,14.15-27.05.45-.6.95-.65,1.25-.05.75,1.5.65,3.5-1.45,7.15-1.2,2.05-3.15,5.55-4.5,8A12.15,12.15,0,0,1,176.9,55.88Z" transform="translate(-0.15 -0.39)"/><path class="cls-1" d="M181.8,69.53a61.73,61.73,0,0,1,6.4-12.15c.45-.6.8-.75,1.2-.3.75.8,1.15,3-.05,5.45-1,2.2-3.15,5.6-4.2,8.1-1.2,2.9-1.1,4.85.5,4.75,2.25-.1,5-3.4,6.5-6.85.25-.45.6-.4.8,0a3.56,3.56,0,0,1-.35,3.1c-1.5,3.1-4.65,5.2-7.45,5.2C181.35,76.83,180.4,73.63,181.8,69.53ZM193,56.48c-.65.7-2,.55-2.8-.75a3.1,3.1,0,0,1,.25-3.7c.8-.85,2.25-.25,2.9,1.1A3,3,0,0,1,193,56.48Z" transform="translate(-0.15 -0.39)"/><path class="cls-1" d="M196.2,75.33c2.4.2,5.9-3.4,7.85-7.25.35-.65.9-.7,1.1,0a4.6,4.6,0,0,1-.5,3.1c-.7,1.5-4.35,5.65-8.35,5.55-3.45-.1-5.3-2.5-4.15-7.9,1.85-8.7,7.55-17.75,12.65-23,.75-.8,1.45-.9,2.15-.25,1.45,1.3,1.75,3.15,1.15,5.5-1.55,6.15-7.15,12.15-11.6,15C194.5,71,194,75.13,196.2,75.33ZM206.4,50c-.65-.4-4.35,5.15-7.8,11.55q-.67,1.2-1.2,2.4C204.25,58.38,207.05,50.38,206.4,50Z" transform="translate(-0.15 -0.39)"/><path class="cls-1" d="M216.75,75.53c2.05-.1,4.75-3.45,6.5-6.9.25-.45.6-.45.8,0a4.37,4.37,0,0,1-.4,3.1c-1.35,2.75-4.45,5.4-7.2,5.25s-4-1.65-4-4c-1.6,2-3.85,3.85-6.2,3.85-4.65,0-5.55-6.35-1.45-12.35,3.95-5.8,7.95-8.05,10.45-8.05,2.05,0,3.05,1.55,3,3.4,2.7-5.15,6.5-12,8.3-14.5.5-.7.95-.65,1.2,0,.7,1.65.55,3.8-1.55,7.55-2.4,4.3-7.2,12.55-9.7,17.85C215.1,73.58,215.05,75.63,216.75,75.53Zm-8.7-9.1c-2.7,4.3-3.25,8.65-1.3,8.7s4.7-2.9,7.05-7.45c2.9-5.55,3.65-8.7,2.2-8.75S210.8,62,208.05,66.43Z" transform="translate(-0.15 -0.39)"/><path class="cls-1" d="M229,75.43c4.15.2,7.8-3.8,9.95-7.1.25-.4.65-.4.85,0a4.06,4.06,0,0,1-.85,3.1,12.67,12.67,0,0,1-9.8,5.4c-6.35.1-8.55-6.15-5.3-12.6s8.35-9.05,10.85-7.6a9.3,9.3,0,0,1,3,2.6c.9,1.2.5,4.25-1.6,6.8-2.45,3-5.8,4.3-9.3,1.45C225.15,72.13,226.35,75.28,229,75.43Zm4.15-11.5c1.6-2.1,2.7-4.7,2-5.25-1.05-.85-5.2,2.15-7.55,6.9-.15.3-.3.6-.4.85C229.65,68,231.7,65.83,233.15,63.93Z" transform="translate(-0.15 -0.39)"/></svg>